<svg xmlns="http://www.w3.org/2000/svg" xmlns:xlink="http://www.w3.org/1999/xlink" width="1794" zoomAndPan="magnify" viewBox="0 0 1345.5 455.999984" height="608" preserveAspectRatio="xMidYMid meet" version="1.0"><defs><g/><clipPath id="28d78d6d33"><path d="M 47.527344 87.5625 L 1297.464844 87.5625 L 1297.464844 98.527344 L 47.527344 98.527344 Z M 47.527344 87.5625 " clip-rule="nonzero"/></clipPath><clipPath id="f1916b4b3d"><path d="M 1 0.765625 L 112 0.765625 L 112 120 L 1 120 Z M 1 0.765625 " clip-rule="nonzero"/></clipPath><clipPath id="68443a308c"><path d="M 225 0.765625 L 335 0.765625 L 335 120 L 225 120 Z M 225 0.765625 " clip-rule="nonzero"/></clipPath><clipPath id="21ca904046"><path d="M 548 0.765625 L 656 0.765625 L 656 117 L 548 117 Z M 548 0.765625 " clip-rule="nonzero"/></clipPath><clipPath id="1c7e76beac"><rect x="0" width="951" y="0" height="168"/></clipPath><clipPath id="74f87a390d"><rect x="0" width="171" y="0" height="224"/></clipPath><clipPath id="08b67e11b6"><path d="M 5 0.00390625 L 146 0.00390625 L 146 162 L 5 162 Z M 5 0.00390625 " clip-rule="nonzero"/></clipPath><clipPath id="699e6f8c8b"><rect x="0" width="149" y="0" height="226"/></clipPath><clipPath id="9365376bf5"><path d="M 902.480469 282.378906 L 1297.527344 282.378906 L 1297.527344 293.34375 L 902.480469 293.34375 Z M 902.480469 282.378906 " clip-rule="nonzero"/></clipPath><clipPath id="0f18a6e815"><rect x="0" width="457" y="0" height="169"/></clipPath><clipPath id="39af6243c6"><path d="M 47.40625 282.378906 L 442.457031 282.378906 L 442.457031 293.34375 L 47.40625 293.34375 Z M 47.40625 282.378906 " clip-rule="nonzero"/></clipPath></defs><g clip-path="url(#28d78d6d33)"><path stroke-linecap="butt" transform="matrix(0.749721, 0, 0, 0.749721, 47.528664, 87.562615)" fill="none" stroke-linejoin="miter" d="M -0.0017609 -0.000153665 L 1667.201066 -0.000153665 L 1667.201066 14.625072 L -0.0017609 14.625072 Z M -0.0017609 -0.000153665 " stroke="#ff751f" stroke-width="8" stroke-opacity="1" stroke-miterlimit="4"/></g><g transform="matrix(1, 0, 0, 1, 205, 108)"><g clip-path="url(#1c7e76beac)"><g clip-path="url(#f1916b4b3d)"><g fill="#ff751f" fill-opacity="1"><g transform="translate(0.7663, 114.945112)"><g><path d="M 79.257812 -110.9375 C 81.5625 -110.9375 83.394531 -110.992188 84.753906 -111.101562 C 86.082031 -111.207031 87.160156 -111.367188 87.988281 -111.574219 C 88.75 -111.761719 89.328125 -111.988281 89.71875 -112.25 C 90.15625 -112.539062 90.570312 -112.882812 90.960938 -113.273438 L 92.4375 -114.75 L 101.628906 -73.308594 L 95.863281 -71.476562 L 95.515625 -72.570312 C 93.035156 -80.445312 88.675781 -86.589844 82.433594 -91 C 76.179688 -95.421875 68.890625 -97.632812 60.570312 -97.632812 C 57.316406 -97.632812 54.730469 -97.417969 52.808594 -96.992188 C 51.0625 -96.605469 49.746094 -95.871094 48.855469 -94.796875 C 47.933594 -93.679688 47.324219 -92.089844 47.019531 -90.019531 C 46.695312 -87.796875 46.53125 -84.820312 46.53125 -81.09375 L 46.53125 -73.917969 L 45.386719 -73.917969 L 45.386719 -75.066406 L 55.5625 -75.066406 C 57.179688 -75.066406 58.800781 -75.171875 60.417969 -75.390625 C 62.03125 -75.605469 63.589844 -75.925781 65.09375 -76.355469 C 66.484375 -76.753906 67.613281 -77.339844 68.484375 -78.113281 L 68.492188 -78.121094 L 68.503906 -78.128906 C 70.457031 -79.792969 71.4375 -82.890625 71.4375 -87.433594 L 71.4375 -88.421875 L 76.859375 -89.234375 L 84.601562 -44.535156 L 79.1875 -43.992188 L 78.863281 -44.78125 C 77.347656 -48.464844 75.703125 -51.433594 73.933594 -53.6875 C 72.195312 -55.898438 70.226562 -57.609375 68.027344 -58.8125 C 65.816406 -60.023438 63.28125 -60.8125 60.421875 -61.183594 C 57.46875 -61.566406 54.125 -61.757812 50.390625 -61.757812 L 45.386719 -61.757812 L 45.386719 -62.90625 L 46.53125 -62.90625 L 46.53125 -25.863281 C 46.53125 -20.335938 47.640625 -16.683594 49.855469 -14.910156 C 52.148438 -13.078125 56.054688 -12.160156 61.570312 -12.160156 C 66.5625 -12.160156 71.054688 -12.835938 75.050781 -14.183594 C 79.070312 -15.542969 82.59375 -17.25 85.621094 -19.304688 C 88.660156 -21.367188 91.289062 -23.617188 93.511719 -26.050781 C 95.746094 -28.507812 97.597656 -30.875 99.066406 -33.15625 C 100.546875 -35.464844 101.726562 -37.460938 102.597656 -39.152344 C 103.5 -40.898438 104.125 -42.0625 104.46875 -42.636719 L 104.964844 -43.460938 L 110.386719 -41.394531 L 95.285156 4.800781 L 93.964844 3.480469 C 93.496094 3.011719 92.703125 2.5 91.59375 1.945312 C 90.53125 1.414062 88.53125 1.148438 85.597656 1.148438 L 0.855469 1.148438 L 0.855469 -5.320312 L 2.003906 -5.320312 C 3.003906 -5.320312 4.003906 -5.46875 5.011719 -5.769531 C 5.894531 -6.035156 6.707031 -6.632812 7.445312 -7.558594 C 8.230469 -8.535156 8.851562 -10 9.3125 -11.945312 C 9.792969 -13.972656 10.03125 -16.664062 10.03125 -20.023438 L 10.03125 -89.769531 C 10.03125 -93.128906 9.792969 -95.820312 9.3125 -97.847656 C 8.855469 -99.785156 8.238281 -101.210938 7.464844 -102.128906 C 6.710938 -103.027344 5.875 -103.632812 4.960938 -103.953125 C 3.972656 -104.300781 2.984375 -104.472656 2.003906 -104.472656 L 0.855469 -104.472656 L 0.855469 -110.9375 Z M 79.257812 -108.644531 L 2.003906 -108.644531 L 2.003906 -109.792969 L 3.148438 -109.792969 L 3.148438 -105.621094 L 2.003906 -105.621094 L 2.003906 -106.769531 C 3.246094 -106.769531 4.484375 -106.550781 5.71875 -106.121094 C 7.027344 -105.660156 8.195312 -104.824219 9.21875 -103.605469 C 10.226562 -102.410156 11.003906 -100.667969 11.542969 -98.375 C 12.066406 -96.175781 12.328125 -93.308594 12.328125 -89.769531 L 12.328125 -20.023438 C 12.328125 -16.484375 12.066406 -13.617188 11.542969 -11.414062 C 11.003906 -9.136719 10.234375 -7.371094 9.238281 -6.125 C 8.199219 -4.824219 7.011719 -3.976562 5.667969 -3.574219 C 4.449219 -3.207031 3.226562 -3.023438 2.003906 -3.023438 L 2.003906 -4.171875 L 3.148438 -4.171875 L 3.148438 0 L 2.003906 0 L 2.003906 -1.148438 L 85.597656 -1.148438 C 88.894531 -1.148438 91.234375 -0.800781 92.617188 -0.109375 C 93.953125 0.558594 94.941406 1.214844 95.585938 1.859375 L 94.773438 2.667969 L 93.683594 2.3125 L 107.867188 -41.070312 L 108.957031 -40.714844 L 108.550781 -39.640625 L 105.046875 -40.976562 L 105.453125 -42.046875 L 106.4375 -41.457031 C 106.117188 -40.921875 105.515625 -39.804688 104.636719 -38.101562 C 103.730469 -36.34375 102.515625 -34.285156 100.996094 -31.917969 C 99.460938 -29.527344 97.53125 -27.058594 95.207031 -24.507812 C 92.863281 -21.9375 90.097656 -19.570312 86.910156 -17.40625 C 83.707031 -15.234375 80 -13.433594 75.785156 -12.011719 C 71.550781 -10.582031 66.8125 -9.867188 61.570312 -9.867188 C 55.519531 -9.867188 51.136719 -10.949219 48.421875 -13.121094 C 45.632812 -15.351562 44.238281 -19.601562 44.238281 -25.863281 L 44.238281 -64.050781 L 50.390625 -64.050781 C 54.222656 -64.050781 57.664062 -63.855469 60.714844 -63.457031 C 63.863281 -63.050781 66.667969 -62.171875 69.128906 -60.824219 C 71.601562 -59.46875 73.804688 -57.5625 75.738281 -55.105469 C 77.636719 -52.683594 79.386719 -49.535156 80.984375 -45.65625 L 79.925781 -45.21875 L 79.8125 -46.359375 L 83.148438 -46.695312 L 83.261719 -45.550781 L 82.132812 -45.355469 L 74.789062 -87.738281 L 75.921875 -87.933594 L 76.089844 -86.800781 L 72.753906 -86.300781 L 72.582031 -87.433594 L 73.730469 -87.433594 C 73.730469 -82.183594 72.484375 -78.5 69.988281 -76.382812 L 69.246094 -77.253906 L 70.007812 -76.398438 C 68.875 -75.390625 67.449219 -74.644531 65.722656 -74.148438 C 64.113281 -73.691406 62.445312 -73.34375 60.722656 -73.113281 C 59.003906 -72.886719 57.28125 -72.769531 55.5625 -72.769531 L 44.238281 -72.769531 L 44.238281 -81.09375 C 44.238281 -84.929688 44.410156 -88.015625 44.75 -90.351562 C 45.117188 -92.84375 45.894531 -94.8125 47.085938 -96.257812 C 48.3125 -97.738281 50.050781 -98.730469 52.3125 -99.230469 C 54.394531 -99.695312 57.148438 -99.925781 60.570312 -99.925781 C 69.378906 -99.925781 77.105469 -97.578125 83.757812 -92.875 C 90.417969 -88.164062 95.070312 -81.628906 97.703125 -73.261719 L 96.609375 -72.917969 L 96.261719 -74.011719 L 99.933594 -75.179688 L 100.28125 -74.085938 L 99.160156 -73.835938 L 90.652344 -112.214844 L 91.773438 -112.460938 L 92.582031 -111.652344 C 92.085938 -111.152344 91.554688 -110.714844 90.988281 -110.339844 C 90.378906 -109.933594 89.5625 -109.601562 88.546875 -109.347656 C 87.59375 -109.109375 86.390625 -108.933594 84.9375 -108.816406 C 83.519531 -108.703125 81.625 -108.644531 79.257812 -108.644531 Z M 79.257812 -108.644531 "/></g></g></g></g><g fill="#ff751f" fill-opacity="1"><g transform="translate(100.88072, 114.945112)"><g><path d="M 60.714844 -109.792969 L 60.714844 -104.613281 L 59.714844 -104.484375 C 57.324219 -104.171875 55.367188 -103.53125 53.839844 -102.566406 C 52.527344 -101.734375 51.871094 -100.359375 51.871094 -98.445312 C 51.871094 -97.210938 52.027344 -96 52.335938 -94.8125 C 52.664062 -93.558594 52.988281 -92.445312 53.316406 -91.46875 L 72.175781 -32.21875 L 71.082031 -31.871094 L 70 -32.257812 L 91.191406 -91.160156 C 91.851562 -93.03125 92.375 -94.597656 92.761719 -95.859375 C 93.117188 -97.03125 93.292969 -98.335938 93.292969 -99.78125 C 93.292969 -102.347656 91.394531 -103.917969 87.597656 -104.488281 L 86.621094 -104.632812 L 86.621094 -110.9375 L 120.785156 -110.9375 L 120.785156 -104.792969 L 120 -104.53125 C 118.4375 -104.011719 117.144531 -103.394531 116.125 -102.679688 C 115.121094 -101.976562 114.214844 -101.042969 113.402344 -99.875 C 112.554688 -98.65625 111.671875 -97.023438 110.757812 -94.972656 C 109.824219 -92.890625 108.808594 -90.253906 107.707031 -87.058594 L 82.328125 -17.4375 L 82.320312 -17.414062 C 81.78125 -16.121094 81.324219 -14.800781 80.945312 -13.457031 C 80.585938 -12.167969 80.40625 -10.964844 80.40625 -9.84375 C 80.40625 -8.386719 80.773438 -7.300781 81.515625 -6.578125 C 82.285156 -5.832031 83.5 -5.410156 85.164062 -5.316406 L 86.246094 -5.253906 L 86.246094 1.148438 L 37.730469 1.148438 L 37.730469 -5.183594 L 38.734375 -5.308594 C 40.296875 -5.503906 41.460938 -5.921875 42.238281 -6.558594 C 42.902344 -7.109375 43.238281 -8.09375 43.238281 -9.511719 C 43.238281 -10.292969 43.085938 -11.21875 42.78125 -12.28125 C 42.453125 -13.425781 42.074219 -14.59375 41.636719 -15.792969 L 41.632812 -15.804688 L 17.933594 -86.234375 C 16.71875 -89.875 15.617188 -92.851562 14.628906 -95.15625 C 13.671875 -97.398438 12.667969 -99.171875 11.617188 -100.484375 C 10.613281 -101.738281 9.496094 -102.660156 8.261719 -103.25 C 6.984375 -103.867188 5.519531 -104.277344 3.863281 -104.484375 L 2.859375 -104.609375 L 2.859375 -110.9375 L 60.714844 -110.9375 Z M 58.421875 -109.792969 L 59.566406 -109.792969 L 59.566406 -108.644531 L 4.003906 -108.644531 L 4.003906 -109.792969 L 5.152344 -109.792969 L 5.152344 -105.621094 L 4.003906 -105.621094 L 4.148438 -106.757812 C 6.050781 -106.519531 7.753906 -106.042969 9.257812 -105.320312 C 10.804688 -104.578125 12.1875 -103.441406 13.410156 -101.914062 C 14.585938 -100.445312 15.695312 -98.492188 16.738281 -96.0625 C 17.753906 -93.695312 18.875 -90.664062 20.109375 -86.964844 L 43.804688 -16.550781 L 42.714844 -16.183594 L 43.792969 -16.578125 C 44.246094 -15.328125 44.644531 -14.105469 44.988281 -12.914062 C 45.351562 -11.640625 45.53125 -10.507812 45.53125 -9.511719 C 45.53125 -7.371094 44.917969 -5.796875 43.695312 -4.789062 C 42.578125 -3.867188 41.019531 -3.28125 39.019531 -3.03125 L 38.878906 -4.171875 L 40.023438 -4.171875 L 40.023438 0 L 38.878906 0 L 38.878906 -1.148438 L 85.097656 -1.148438 L 85.097656 0 L 83.949219 0 L 83.949219 -4.171875 L 85.097656 -4.171875 L 85.03125 -3.027344 C 82.800781 -3.152344 81.097656 -3.789062 79.917969 -4.933594 C 78.710938 -6.105469 78.109375 -7.742188 78.109375 -9.84375 C 78.109375 -11.171875 78.320312 -12.582031 78.738281 -14.074219 C 79.136719 -15.511719 79.625 -16.917969 80.199219 -18.296875 L 81.257812 -17.855469 L 80.183594 -18.246094 L 105.539062 -87.808594 C 106.660156 -91.066406 107.703125 -93.765625 108.660156 -95.910156 C 109.636719 -98.089844 110.589844 -99.847656 111.519531 -101.1875 C 112.488281 -102.578125 113.582031 -103.703125 114.808594 -104.558594 C 116.011719 -105.402344 117.5 -106.117188 119.273438 -106.710938 L 119.636719 -105.621094 L 118.488281 -105.621094 L 118.488281 -109.792969 L 119.636719 -109.792969 L 119.636719 -108.644531 L 87.765625 -108.644531 L 87.765625 -109.792969 L 88.914062 -109.792969 L 88.914062 -105.621094 L 87.765625 -105.621094 L 87.9375 -106.753906 C 93.039062 -105.988281 95.589844 -103.664062 95.589844 -99.78125 C 95.589844 -98.109375 95.378906 -96.578125 94.953125 -95.191406 C 94.5625 -93.898438 94.027344 -92.292969 93.351562 -90.382812 L 71.015625 -28.296875 L 51.136719 -90.742188 C 50.796875 -91.765625 50.457031 -92.929688 50.117188 -94.234375 C 49.757812 -95.609375 49.578125 -97.011719 49.578125 -98.445312 C 49.578125 -101.203125 50.589844 -103.222656 52.613281 -104.503906 C 54.425781 -105.652344 56.695312 -106.402344 59.417969 -106.757812 L 59.566406 -105.621094 L 58.421875 -105.621094 Z M 58.421875 -109.792969 "/></g></g></g><g clip-path="url(#68443a308c)"><g fill="#ff751f" fill-opacity="1"><g transform="translate(224.355178, 114.945112)"><g><path d="M 79.257812 -110.9375 C 81.5625 -110.9375 83.394531 -110.992188 84.753906 -111.101562 C 86.082031 -111.207031 87.160156 -111.367188 87.988281 -111.574219 C 88.75 -111.761719 89.328125 -111.988281 89.71875 -112.25 C 90.15625 -112.539062 90.570312 -112.882812 90.960938 -113.273438 L 92.4375 -114.75 L 101.628906 -73.308594 L 95.863281 -71.476562 L 95.515625 -72.570312 C 93.035156 -80.445312 88.675781 -86.589844 82.433594 -91 C 76.179688 -95.421875 68.890625 -97.632812 60.570312 -97.632812 C 57.316406 -97.632812 54.730469 -97.417969 52.808594 -96.992188 C 51.0625 -96.605469 49.746094 -95.871094 48.855469 -94.796875 C 47.933594 -93.679688 47.324219 -92.089844 47.019531 -90.019531 C 46.695312 -87.796875 46.53125 -84.820312 46.53125 -81.09375 L 46.53125 -73.917969 L 45.386719 -73.917969 L 45.386719 -75.066406 L 55.5625 -75.066406 C 57.179688 -75.066406 58.800781 -75.171875 60.417969 -75.390625 C 62.03125 -75.605469 63.589844 -75.925781 65.09375 -76.355469 C 66.484375 -76.753906 67.613281 -77.339844 68.484375 -78.113281 L 68.492188 -78.121094 L 68.503906 -78.128906 C 70.457031 -79.792969 71.4375 -82.890625 71.4375 -87.433594 L 71.4375 -88.421875 L 76.859375 -89.234375 L 84.601562 -44.535156 L 79.1875 -43.992188 L 78.863281 -44.78125 C 77.347656 -48.464844 75.703125 -51.433594 73.933594 -53.6875 C 72.195312 -55.898438 70.226562 -57.609375 68.027344 -58.8125 C 65.816406 -60.023438 63.28125 -60.8125 60.421875 -61.183594 C 57.46875 -61.566406 54.125 -61.757812 50.390625 -61.757812 L 45.386719 -61.757812 L 45.386719 -62.90625 L 46.53125 -62.90625 L 46.53125 -25.863281 C 46.53125 -20.335938 47.640625 -16.683594 49.855469 -14.910156 C 52.148438 -13.078125 56.054688 -12.160156 61.570312 -12.160156 C 66.5625 -12.160156 71.054688 -12.835938 75.050781 -14.183594 C 79.070312 -15.542969 82.59375 -17.25 85.621094 -19.304688 C 88.660156 -21.367188 91.289062 -23.617188 93.511719 -26.050781 C 95.746094 -28.507812 97.597656 -30.875 99.066406 -33.15625 C 100.546875 -35.464844 101.726562 -37.460938 102.597656 -39.152344 C 103.5 -40.898438 104.125 -42.0625 104.46875 -42.636719 L 104.964844 -43.460938 L 110.386719 -41.394531 L 95.285156 4.800781 L 93.964844 3.480469 C 93.496094 3.011719 92.703125 2.5 91.59375 1.945312 C 90.53125 1.414062 88.53125 1.148438 85.597656 1.148438 L 0.855469 1.148438 L 0.855469 -5.320312 L 2.003906 -5.320312 C 3.003906 -5.320312 4.003906 -5.46875 5.011719 -5.769531 C 5.894531 -6.035156 6.707031 -6.632812 7.445312 -7.558594 C 8.230469 -8.535156 8.851562 -10 9.3125 -11.945312 C 9.792969 -13.972656 10.03125 -16.664062 10.03125 -20.023438 L 10.03125 -89.769531 C 10.03125 -93.128906 9.792969 -95.820312 9.3125 -97.847656 C 8.855469 -99.785156 8.238281 -101.210938 7.464844 -102.128906 C 6.710938 -103.027344 5.875 -103.632812 4.960938 -103.953125 C 3.972656 -104.300781 2.984375 -104.472656 2.003906 -104.472656 L 0.855469 -104.472656 L 0.855469 -110.9375 Z M 79.257812 -108.644531 L 2.003906 -108.644531 L 2.003906 -109.792969 L 3.148438 -109.792969 L 3.148438 -105.621094 L 2.003906 -105.621094 L 2.003906 -106.769531 C 3.246094 -106.769531 4.484375 -106.550781 5.71875 -106.121094 C 7.027344 -105.660156 8.195312 -104.824219 9.21875 -103.605469 C 10.226562 -102.410156 11.003906 -100.667969 11.542969 -98.375 C 12.066406 -96.175781 12.328125 -93.308594 12.328125 -89.769531 L 12.328125 -20.023438 C 12.328125 -16.484375 12.066406 -13.617188 11.542969 -11.414062 C 11.003906 -9.136719 10.234375 -7.371094 9.238281 -6.125 C 8.199219 -4.824219 7.011719 -3.976562 5.667969 -3.574219 C 4.449219 -3.207031 3.226562 -3.023438 2.003906 -3.023438 L 2.003906 -4.171875 L 3.148438 -4.171875 L 3.148438 0 L 2.003906 0 L 2.003906 -1.148438 L 85.597656 -1.148438 C 88.894531 -1.148438 91.234375 -0.800781 92.617188 -0.109375 C 93.953125 0.558594 94.941406 1.214844 95.585938 1.859375 L 94.773438 2.667969 L 93.683594 2.3125 L 107.867188 -41.070312 L 108.957031 -40.714844 L 108.550781 -39.640625 L 105.046875 -40.976562 L 105.453125 -42.046875 L 106.4375 -41.457031 C 106.117188 -40.921875 105.515625 -39.804688 104.636719 -38.101562 C 103.730469 -36.34375 102.515625 -34.285156 100.996094 -31.917969 C 99.460938 -29.527344 97.53125 -27.058594 95.207031 -24.507812 C 92.863281 -21.9375 90.097656 -19.570312 86.910156 -17.40625 C 83.707031 -15.234375 80 -13.433594 75.785156 -12.011719 C 71.550781 -10.582031 66.8125 -9.867188 61.570312 -9.867188 C 55.519531 -9.867188 51.136719 -10.949219 48.421875 -13.121094 C 45.632812 -15.351562 44.238281 -19.601562 44.238281 -25.863281 L 44.238281 -64.050781 L 50.390625 -64.050781 C 54.222656 -64.050781 57.664062 -63.855469 60.714844 -63.457031 C 63.863281 -63.050781 66.667969 -62.171875 69.128906 -60.824219 C 71.601562 -59.46875 73.804688 -57.5625 75.738281 -55.105469 C 77.636719 -52.683594 79.386719 -49.535156 80.984375 -45.65625 L 79.925781 -45.21875 L 79.8125 -46.359375 L 83.148438 -46.695312 L 83.261719 -45.550781 L 82.132812 -45.355469 L 74.789062 -87.738281 L 75.921875 -87.933594 L 76.089844 -86.800781 L 72.753906 -86.300781 L 72.582031 -87.433594 L 73.730469 -87.433594 C 73.730469 -82.183594 72.484375 -78.5 69.988281 -76.382812 L 69.246094 -77.253906 L 70.007812 -76.398438 C 68.875 -75.390625 67.449219 -74.644531 65.722656 -74.148438 C 64.113281 -73.691406 62.445312 -73.34375 60.722656 -73.113281 C 59.003906 -72.886719 57.28125 -72.769531 55.5625 -72.769531 L 44.238281 -72.769531 L 44.238281 -81.09375 C 44.238281 -84.929688 44.410156 -88.015625 44.75 -90.351562 C 45.117188 -92.84375 45.894531 -94.8125 47.085938 -96.257812 C 48.3125 -97.738281 50.050781 -98.730469 52.3125 -99.230469 C 54.394531 -99.695312 57.148438 -99.925781 60.570312 -99.925781 C 69.378906 -99.925781 77.105469 -97.578125 83.757812 -92.875 C 90.417969 -88.164062 95.070312 -81.628906 97.703125 -73.261719 L 96.609375 -72.917969 L 96.261719 -74.011719 L 99.933594 -75.179688 L 100.28125 -74.085938 L 99.160156 -73.835938 L 90.652344 -112.214844 L 91.773438 -112.460938 L 92.582031 -111.652344 C 92.085938 -111.152344 91.554688 -110.714844 90.988281 -110.339844 C 90.378906 -109.933594 89.5625 -109.601562 88.546875 -109.347656 C 87.59375 -109.109375 86.390625 -108.933594 84.9375 -108.816406 C 83.519531 -108.703125 81.625 -108.644531 79.257812 -108.644531 Z M 79.257812 -108.644531 "/></g></g></g></g><g fill="#ff751f" fill-opacity="1"><g transform="translate(334.481047, 114.945112)"><g><path d="M 56.542969 -109.839844 L 56.757812 -104.472656 L 55.5625 -104.472656 C 54.457031 -104.472656 53.433594 -104.324219 52.488281 -104.027344 C 51.652344 -103.761719 50.863281 -103.164062 50.117188 -102.234375 C 49.335938 -101.257812 48.714844 -99.792969 48.253906 -97.847656 C 47.773438 -95.820312 47.535156 -93.128906 47.535156 -89.769531 L 47.535156 -20.523438 C 47.535156 -19.167969 47.664062 -17.949219 47.917969 -16.867188 C 48.144531 -15.921875 48.617188 -15.113281 49.339844 -14.4375 C 50.09375 -13.730469 51.183594 -13.179688 52.613281 -12.785156 C 54.128906 -12.367188 56.113281 -12.160156 58.566406 -12.160156 C 63.292969 -12.160156 67.75 -13.125 71.933594 -15.058594 C 76.171875 -17.011719 80.027344 -19.535156 83.5 -22.632812 C 86.984375 -25.734375 90.035156 -29.273438 92.648438 -33.25 C 95.273438 -37.246094 97.40625 -41.320312 99.046875 -45.472656 L 99.453125 -46.5 L 104.863281 -44.605469 L 89.914062 5.640625 L 88.59375 3.21875 C 88.101562 2.3125 87.308594 1.753906 86.214844 1.542969 C 84.839844 1.28125 82.855469 1.148438 80.257812 1.148438 L 1.855469 1.148438 L 1.855469 -5.320312 L 3.003906 -5.320312 C 4.003906 -5.320312 5.007812 -5.46875 6.011719 -5.769531 C 6.894531 -6.035156 7.707031 -6.632812 8.449219 -7.558594 C 9.230469 -8.535156 9.851562 -10 10.3125 -11.945312 C 10.792969 -13.972656 11.035156 -16.664062 11.035156 -20.023438 L 11.035156 -89.769531 C 11.035156 -93.117188 10.769531 -95.800781 10.238281 -97.820312 C 9.71875 -99.789062 9.085938 -101.269531 8.34375 -102.261719 C 7.660156 -103.175781 6.882812 -103.761719 6.011719 -104.023438 C 5.007812 -104.324219 4.003906 -104.472656 3.003906 -104.472656 L 1.855469 -104.472656 L 1.855469 -110.9375 L 56.5 -110.9375 Z M 54.25 -109.746094 L 55.398438 -109.792969 L 55.398438 -108.644531 L 3.003906 -108.644531 L 3.003906 -109.792969 L 4.152344 -109.792969 L 4.152344 -105.621094 L 3.003906 -105.621094 L 3.003906 -106.769531 C 4.226562 -106.769531 5.449219 -106.585938 6.671875 -106.21875 C 8.023438 -105.8125 9.191406 -104.953125 10.179688 -103.640625 C 11.101562 -102.40625 11.863281 -100.664062 12.457031 -98.402344 C 13.035156 -96.195312 13.328125 -93.316406 13.328125 -89.769531 L 13.328125 -20.023438 C 13.328125 -16.484375 13.066406 -13.617188 12.546875 -11.414062 C 12.003906 -9.136719 11.238281 -7.371094 10.238281 -6.125 C 9.199219 -4.824219 8.011719 -3.976562 6.671875 -3.574219 C 5.449219 -3.207031 4.226562 -3.023438 3.003906 -3.023438 L 3.003906 -4.171875 L 4.152344 -4.171875 L 4.152344 0 L 3.003906 0 L 3.003906 -1.148438 L 80.257812 -1.148438 C 83 -1.148438 85.132812 -1 86.648438 -0.710938 C 88.449219 -0.363281 89.769531 0.582031 90.609375 2.121094 L 89.601562 2.667969 L 88.503906 2.34375 L 102.351562 -44.210938 L 103.453125 -43.882812 L 103.074219 -42.800781 L 99.734375 -43.96875 L 100.113281 -45.050781 L 101.179688 -44.628906 C 99.484375 -40.328125 97.277344 -36.117188 94.566406 -31.992188 C 91.839844 -27.847656 88.660156 -24.15625 85.027344 -20.917969 C 81.382812 -17.671875 77.339844 -15.023438 72.898438 -12.972656 C 68.40625 -10.902344 63.628906 -9.867188 58.566406 -9.867188 C 55.90625 -9.867188 53.71875 -10.101562 52.003906 -10.574219 C 50.210938 -11.070312 48.796875 -11.796875 47.769531 -12.761719 C 46.714844 -13.753906 46.019531 -14.945312 45.6875 -16.335938 C 45.390625 -17.59375 45.238281 -18.988281 45.238281 -20.523438 L 45.238281 -89.769531 C 45.238281 -93.308594 45.5 -96.175781 46.019531 -98.375 C 46.5625 -100.65625 47.328125 -102.421875 48.328125 -103.667969 C 49.363281 -104.960938 50.519531 -105.808594 51.796875 -106.214844 C 52.964844 -106.582031 54.222656 -106.769531 55.5625 -106.769531 L 55.5625 -105.621094 L 54.417969 -105.574219 Z M 54.25 -109.746094 "/></g></g></g><g fill="#ff751f" fill-opacity="1"><g transform="translate(430.424049, 114.945112)"><g><path d="M 57.152344 -87.234375 L 45.472656 -52.527344 L 44.382812 -52.894531 L 44.40625 -54.039062 C 50.332031 -53.925781 55.613281 -52.925781 60.25 -51.035156 C 64.84375 -49.164062 68.238281 -47.421875 70.425781 -45.808594 L 69.746094 -44.882812 L 68.652344 -44.535156 L 54.972656 -87.25 L 56.0625 -87.601562 Z M 56.089844 -91.277344 L 71.921875 -41.859375 L 69.066406 -43.960938 C 67.027344 -45.460938 63.800781 -47.113281 59.386719 -48.910156 C 55.011719 -50.691406 50.003906 -51.636719 44.363281 -51.746094 L 42.796875 -51.777344 L 54.976562 -87.964844 Z M 93.085938 -109.792969 L 93.085938 -104.664062 L 92.144531 -104.492188 C 91.117188 -104.304688 90.347656 -104 89.835938 -103.570312 C 89.445312 -103.246094 89.246094 -102.59375 89.246094 -101.617188 C 89.246094 -101.582031 89.296875 -101.320312 89.390625 -100.839844 C 89.496094 -100.320312 89.738281 -99.4375 90.117188 -98.195312 C 90.503906 -96.921875 91.058594 -95.144531 91.78125 -92.871094 C 92.5 -90.597656 93.472656 -87.6875 94.691406 -84.136719 L 116.050781 -21.058594 C 116.605469 -19.394531 117.214844 -17.652344 117.878906 -15.828125 C 118.515625 -14.070312 119.3125 -12.449219 120.269531 -10.964844 C 121.207031 -9.503906 122.328125 -8.230469 123.628906 -7.136719 C 124.839844 -6.117188 126.335938 -5.507812 128.105469 -5.3125 L 129.125 -5.199219 L 129.125 1.148438 L 69.265625 1.148438 L 69.265625 -5.226562 L 70.320312 -5.316406 C 72.714844 -5.515625 74.679688 -6.355469 76.207031 -7.832031 C 77.699219 -9.277344 78.445312 -11.28125 78.445312 -13.847656 C 78.445312 -17.929688 77.214844 -21.59375 74.753906 -24.835938 C 72.226562 -28.171875 69.074219 -31.027344 65.296875 -33.402344 C 61.5 -35.789062 57.371094 -37.609375 52.917969 -38.859375 C 48.449219 -40.113281 44.257812 -40.792969 40.347656 -40.902344 L 40.378906 -42.046875 L 41.460938 -41.667969 L 35.453125 -24.648438 L 34.371094 -25.027344 L 35.519531 -25.027344 C 35.519531 -24.792969 35.332031 -24.117188 34.960938 -22.996094 C 34.632812 -22.015625 34.277344 -20.835938 33.890625 -19.464844 C 33.507812 -18.09375 33.152344 -16.667969 32.824219 -15.183594 C 32.507812 -13.765625 32.347656 -12.542969 32.347656 -11.511719 C 32.347656 -9.515625 32.863281 -8.042969 33.894531 -7.105469 C 34.984375 -6.109375 36.675781 -5.515625 38.976562 -5.3125 L 40.023438 -5.222656 L 40.023438 1.148438 L 1.023438 1.148438 L 1.023438 -5.113281 L 1.945312 -5.296875 C 3.988281 -5.707031 5.746094 -6.492188 7.214844 -7.65625 C 8.734375 -8.863281 10.046875 -10.28125 11.148438 -11.90625 C 12.277344 -13.574219 13.273438 -15.378906 14.136719 -17.320312 C 15.019531 -19.304688 15.84375 -21.289062 16.617188 -23.273438 L 42.980469 -92.347656 C 44.082031 -95.214844 44.824219 -97.277344 45.207031 -98.53125 C 45.5625 -99.699219 45.738281 -100.671875 45.738281 -101.449219 C 45.738281 -102.382812 45.527344 -103.089844 45.109375 -103.570312 C 44.683594 -104.050781 44.003906 -104.355469 43.0625 -104.484375 L 42.070312 -104.621094 L 42.070312 -110.9375 L 93.085938 -110.9375 Z M 90.792969 -109.792969 L 91.9375 -109.792969 L 91.9375 -108.644531 L 43.214844 -108.644531 L 43.214844 -109.792969 L 44.363281 -109.792969 L 44.363281 -105.621094 L 43.214844 -105.621094 L 43.371094 -106.757812 C 44.878906 -106.550781 46.03125 -105.996094 46.832031 -105.085938 C 47.632812 -104.171875 48.035156 -102.960938 48.035156 -101.449219 C 48.035156 -100.445312 47.824219 -99.25 47.402344 -97.863281 C 47.003906 -96.554688 46.242188 -94.445312 45.121094 -91.53125 L 18.757812 -22.445312 C 17.972656 -20.425781 17.128906 -18.40625 16.230469 -16.386719 C 15.316406 -14.324219 14.253906 -12.398438 13.046875 -10.621094 C 11.8125 -8.796875 10.34375 -7.210938 8.636719 -5.859375 C 6.882812 -4.464844 4.800781 -3.527344 2.394531 -3.046875 L 2.167969 -4.171875 L 3.316406 -4.171875 L 3.316406 0 L 2.167969 0 L 2.167969 -1.148438 L 38.878906 -1.148438 L 38.878906 0 L 37.730469 0 L 37.730469 -4.171875 L 38.878906 -4.171875 L 38.777344 -3.027344 C 35.960938 -3.273438 33.816406 -4.066406 32.347656 -5.410156 C 30.820312 -6.804688 30.054688 -8.839844 30.054688 -11.511719 C 30.054688 -12.710938 30.230469 -14.097656 30.582031 -15.683594 C 30.921875 -17.207031 31.289062 -18.671875 31.683594 -20.082031 C 32.078125 -21.492188 32.445312 -22.703125 32.785156 -23.722656 C 32.945312 -24.210938 33.070312 -24.589844 33.148438 -24.859375 C 33.183594 -24.980469 33.210938 -25.074219 33.226562 -25.140625 C 33.234375 -25.160156 33.234375 -25.171875 33.238281 -25.175781 C 33.230469 -25.136719 33.226562 -25.085938 33.226562 -25.027344 L 33.226562 -25.226562 L 39.574219 -43.21875 L 40.410156 -43.195312 C 44.511719 -43.082031 48.886719 -42.371094 53.539062 -41.066406 C 58.203125 -39.757812 62.53125 -37.851562 66.519531 -35.34375 C 70.53125 -32.824219 73.886719 -29.78125 76.585938 -26.222656 C 79.351562 -22.570312 80.738281 -18.445312 80.738281 -13.847656 C 80.738281 -10.632812 79.757812 -8.078125 77.800781 -6.183594 C 75.882812 -4.324219 73.449219 -3.273438 70.507812 -3.027344 L 70.414062 -4.171875 L 71.5625 -4.171875 L 71.5625 0 L 70.414062 0 L 70.414062 -1.148438 L 127.980469 -1.148438 L 127.980469 0 L 126.832031 0 L 126.832031 -4.171875 L 127.980469 -4.171875 L 127.851562 -3.03125 C 125.621094 -3.28125 123.71875 -4.0625 122.152344 -5.378906 C 120.671875 -6.621094 119.402344 -8.070312 118.339844 -9.726562 C 117.289062 -11.355469 116.417969 -13.125 115.722656 -15.042969 C 115.050781 -16.886719 114.4375 -18.648438 113.878906 -20.324219 L 92.523438 -83.390625 C 91.296875 -86.957031 90.320312 -89.886719 89.59375 -92.175781 C 88.871094 -94.460938 88.3125 -96.246094 87.921875 -97.527344 C 87.519531 -98.84375 87.261719 -99.796875 87.144531 -100.390625 C 87.015625 -101.019531 86.953125 -101.429688 86.953125 -101.617188 C 86.953125 -103.308594 87.425781 -104.546875 88.367188 -105.335938 C 89.191406 -106.019531 90.3125 -106.492188 91.734375 -106.75 L 91.9375 -105.621094 L 90.792969 -105.621094 Z M 90.792969 -109.792969 "/></g></g></g><g clip-path="url(#21ca904046)"><g fill="#ff751f" fill-opacity="1"><g transform="translate(552.229937, 114.945112)"><g><path d="M 7.367188 -112.976562 C 7.421875 -112.863281 7.574219 -112.683594 7.820312 -112.4375 C 8.023438 -112.234375 8.460938 -112.019531 9.121094 -111.796875 C 9.878906 -111.546875 10.96875 -111.339844 12.390625 -111.183594 C 13.851562 -111.019531 15.839844 -110.9375 18.355469 -110.9375 L 80.925781 -110.9375 C 83.570312 -110.9375 85.683594 -110.992188 87.269531 -111.105469 C 88.816406 -111.210938 90 -111.367188 90.824219 -111.574219 C 91.566406 -111.757812 92.097656 -111.96875 92.417969 -112.210938 C 92.777344 -112.480469 93.089844 -112.792969 93.355469 -113.148438 L 94.894531 -115.199219 L 103.300781 -73.519531 L 97.886719 -72.4375 L 97.542969 -73.339844 C 94.722656 -80.707031 90.925781 -86.273438 86.140625 -90.035156 C 81.375 -93.785156 75.050781 -95.925781 67.164062 -96.46875 L 67.242188 -97.613281 L 68.390625 -97.613281 L 68.390625 -20.855469 C 68.390625 -14.699219 69.320312 -10.589844 71.183594 -8.527344 C 73.019531 -6.492188 76.109375 -5.421875 80.453125 -5.316406 L 81.574219 -5.292969 L 81.574219 1.148438 L 18.707031 1.148438 L 18.707031 -5.292969 L 19.828125 -5.316406 C 24.171875 -5.421875 27.261719 -6.492188 29.097656 -8.527344 C 30.960938 -10.589844 31.890625 -14.699219 31.890625 -20.855469 L 31.890625 -97.613281 L 33.039062 -97.613281 L 33.070312 -96.464844 C 25.730469 -96.25 19.34375 -94.285156 13.914062 -90.574219 C 8.53125 -86.898438 4.820312 -81.191406 2.777344 -73.457031 L 2.503906 -72.425781 L -3.203125 -73.511719 L 5.90625 -115.898438 Z M 5.316406 -111.949219 L 6.339844 -112.460938 L 7.460938 -112.222656 L -0.714844 -74.175781 L -1.835938 -74.417969 L -1.621094 -75.546875 L 1.882812 -74.878906 L 1.667969 -73.75 L 0.558594 -74.042969 C 2.746094 -82.328125 6.765625 -88.46875 12.617188 -92.46875 C 18.421875 -96.433594 25.214844 -98.527344 33.003906 -98.757812 L 34.183594 -98.792969 L 34.183594 -20.855469 C 34.183594 -14.109375 33.058594 -9.488281 30.800781 -6.992188 C 28.523438 -4.464844 24.882812 -3.144531 19.882812 -3.023438 L 19.855469 -4.171875 L 21.003906 -4.171875 L 21.003906 0 L 19.855469 0 L 19.855469 -1.148438 L 80.425781 -1.148438 L 80.425781 0 L 79.277344 0 L 79.277344 -4.171875 L 80.425781 -4.171875 L 80.398438 -3.023438 C 75.398438 -3.144531 71.757812 -4.464844 69.480469 -6.992188 C 67.222656 -9.488281 66.097656 -14.109375 66.097656 -20.855469 L 66.097656 -98.839844 L 67.320312 -98.757812 C 75.675781 -98.183594 82.421875 -95.878906 87.558594 -91.839844 C 92.675781 -87.816406 96.714844 -81.921875 99.683594 -74.160156 L 98.613281 -73.75 L 98.386719 -74.875 L 101.726562 -75.542969 L 101.949219 -74.417969 L 100.824219 -74.191406 L 93.148438 -112.234375 L 94.273438 -112.460938 L 95.191406 -111.773438 C 94.792969 -111.242188 94.328125 -110.777344 93.792969 -110.375 C 93.226562 -109.949219 92.421875 -109.605469 91.382812 -109.347656 C 90.425781 -109.109375 89.109375 -108.929688 87.429688 -108.816406 C 85.789062 -108.703125 83.621094 -108.644531 80.925781 -108.644531 L 18.355469 -108.644531 C 15.753906 -108.644531 13.679688 -108.730469 12.136719 -108.902344 C 10.554688 -109.078125 9.308594 -109.316406 8.398438 -109.621094 C 7.390625 -109.957031 6.660156 -110.355469 6.195312 -110.816406 C 5.773438 -111.238281 5.480469 -111.617188 5.316406 -111.949219 Z M 5.316406 -111.949219 "/></g></g></g></g><g fill="#ff751f" fill-opacity="1"><g transform="translate(652.344378, 114.945112)"><g><path d="M 55.875 -109.792969 L 55.875 -104.472656 L 54.730469 -104.472656 C 53.636719 -104.472656 52.59375 -104.300781 51.605469 -103.953125 C 50.710938 -103.640625 49.917969 -103.023438 49.222656 -102.097656 C 48.484375 -101.109375 47.882812 -99.664062 47.417969 -97.757812 C 46.9375 -95.789062 46.699219 -93.125 46.699219 -89.769531 L 46.699219 -20.023438 C 46.699219 -16.554688 46.9375 -13.835938 47.417969 -11.867188 C 47.878906 -9.972656 48.476562 -8.5625 49.207031 -7.636719 C 49.902344 -6.753906 50.703125 -6.152344 51.605469 -5.839844 C 52.59375 -5.492188 53.636719 -5.320312 54.730469 -5.320312 L 55.875 -5.320312 L 55.875 1.148438 L 1.023438 1.148438 L 1.023438 -5.320312 L 2.167969 -5.320312 C 3.261719 -5.320312 4.304688 -5.492188 5.292969 -5.839844 C 6.1875 -6.152344 6.980469 -6.769531 7.675781 -7.695312 C 8.414062 -8.683594 9.015625 -10.128906 9.480469 -12.035156 C 9.960938 -14.003906 10.199219 -16.667969 10.199219 -20.023438 L 10.199219 -89.769531 C 10.199219 -93.117188 9.933594 -95.800781 9.402344 -97.820312 C 8.882812 -99.789062 8.253906 -101.269531 7.507812 -102.261719 C 6.824219 -103.175781 6.046875 -103.761719 5.175781 -104.023438 C 4.171875 -104.324219 3.167969 -104.472656 2.167969 -104.472656 L 1.023438 -104.472656 L 1.023438 -110.9375 L 55.875 -110.9375 Z M 53.582031 -109.792969 L 54.730469 -109.792969 L 54.730469 -108.644531 L 2.167969 -108.644531 L 2.167969 -109.792969 L 3.316406 -109.792969 L 3.316406 -105.621094 L 2.167969 -105.621094 L 2.167969 -106.769531 C 3.394531 -106.769531 4.617188 -106.585938 5.835938 -106.21875 C 7.1875 -105.8125 8.359375 -104.953125 9.34375 -103.640625 C 10.269531 -102.40625 11.027344 -100.664062 11.621094 -98.402344 C 12.203125 -96.195312 12.492188 -93.316406 12.492188 -89.769531 L 12.492188 -20.023438 C 12.492188 -16.484375 12.230469 -13.640625 11.710938 -11.492188 C 11.171875 -9.28125 10.4375 -7.558594 9.511719 -6.320312 C 8.535156 -5.019531 7.382812 -4.140625 6.050781 -3.671875 C 4.816406 -3.242188 3.523438 -3.023438 2.167969 -3.023438 L 2.167969 -4.171875 L 3.316406 -4.171875 L 3.316406 0 L 2.167969 0 L 2.167969 -1.148438 L 54.730469 -1.148438 L 54.730469 0 L 53.582031 0 L 53.582031 -4.171875 L 54.730469 -4.171875 L 54.730469 -3.023438 C 53.375 -3.023438 52.082031 -3.242188 50.847656 -3.671875 C 49.523438 -4.136719 48.375 -4.984375 47.40625 -6.214844 C 46.46875 -7.402344 45.726562 -9.105469 45.1875 -11.324219 C 44.667969 -13.472656 44.40625 -16.371094 44.40625 -20.023438 L 44.40625 -89.769531 C 44.40625 -93.308594 44.667969 -96.152344 45.1875 -98.300781 C 45.726562 -100.511719 46.460938 -102.234375 47.386719 -103.472656 C 48.363281 -104.769531 49.515625 -105.652344 50.847656 -106.121094 C 52.082031 -106.550781 53.375 -106.769531 54.730469 -106.769531 L 54.730469 -105.621094 L 53.582031 -105.621094 Z M 53.582031 -109.792969 "/></g></g></g><g fill="#ff751f" fill-opacity="1"><g transform="translate(709.075882, 114.945112)"><g><path d="M 62.570312 -97.132812 C 60.203125 -97.132812 57.570312 -96.371094 54.679688 -94.84375 C 51.824219 -93.339844 49.171875 -90.351562 46.726562 -85.882812 C 45.21875 -83.085938 44.035156 -79.738281 43.167969 -75.839844 C 42.296875 -71.914062 41.859375 -67.105469 41.859375 -61.402344 C 41.859375 -53.152344 42.601562 -45.957031 44.082031 -39.8125 C 45.554688 -33.699219 47.515625 -28.605469 49.957031 -24.535156 C 52.363281 -20.519531 55.132812 -17.53125 58.257812 -15.570312 C 61.355469 -13.628906 64.515625 -12.660156 67.746094 -12.660156 C 68.777344 -12.660156 70.0625 -12.820312 71.601562 -13.136719 C 73.085938 -13.445312 74.664062 -14.09375 76.335938 -15.085938 C 78.003906 -16.074219 79.65625 -17.550781 81.296875 -19.507812 C 82.9375 -21.464844 84.34375 -24.046875 85.523438 -27.257812 C 86.386719 -29.742188 87.089844 -32.699219 87.636719 -36.136719 C 88.183594 -39.582031 88.457031 -43.609375 88.457031 -48.222656 C 88.457031 -57.582031 87.714844 -65.222656 86.238281 -71.136719 C 84.765625 -77.019531 82.839844 -81.800781 80.464844 -85.476562 C 77.464844 -90.082031 74.386719 -93.175781 71.234375 -94.75 C 68.058594 -96.339844 65.171875 -97.132812 62.570312 -97.132812 Z M 62.570312 -99.425781 C 65.53125 -99.425781 68.761719 -98.550781 72.261719 -96.800781 C 75.785156 -95.039062 79.160156 -91.679688 82.390625 -86.722656 C 84.90625 -82.832031 86.929688 -77.824219 88.460938 -71.691406 C 89.988281 -65.59375 90.75 -57.769531 90.75 -48.222656 C 90.75 -43.488281 90.46875 -39.339844 89.902344 -35.777344 C 89.335938 -32.207031 88.59375 -29.105469 87.675781 -26.46875 C 86.40625 -23.007812 84.867188 -20.195312 83.058594 -18.035156 C 81.25 -15.875 79.398438 -14.238281 77.507812 -13.113281 C 75.617188 -11.992188 73.804688 -11.25 72.066406 -10.890625 C 70.375 -10.539062 68.933594 -10.367188 67.746094 -10.367188 C 64.074219 -10.367188 60.507812 -11.453125 57.039062 -13.628906 C 53.601562 -15.785156 50.585938 -19.023438 47.988281 -23.355469 C 45.425781 -27.625 43.378906 -32.933594 41.851562 -39.277344 C 40.328125 -45.59375 39.566406 -52.96875 39.566406 -61.402344 C 39.566406 -67.273438 40.019531 -72.25 40.929688 -76.335938 C 41.839844 -80.445312 43.101562 -83.992188 44.710938 -86.984375 C 47.382812 -91.855469 50.347656 -95.152344 53.609375 -96.875 C 56.835938 -98.574219 59.824219 -99.425781 62.570312 -99.425781 Z M 2.859375 -55.230469 C 2.859375 -64.40625 4.503906 -72.601562 7.800781 -79.816406 C 11.09375 -87.027344 15.582031 -93.160156 21.261719 -98.21875 C 26.941406 -103.269531 33.605469 -107.101562 41.261719 -109.710938 C 48.890625 -112.308594 57.050781 -113.609375 65.742188 -113.609375 C 76.121094 -113.609375 85.269531 -112.054688 93.191406 -108.941406 C 101.148438 -105.816406 107.6875 -101.40625 112.8125 -95.710938 C 117.816406 -90.253906 121.507812 -83.886719 123.898438 -76.613281 C 126.269531 -69.375 127.457031 -61.859375 127.457031 -54.0625 C 127.457031 -45.566406 126.039062 -37.910156 123.199219 -31.09375 C 120.367188 -24.296875 116.957031 -18.734375 112.972656 -14.40625 L 112.953125 -14.386719 C 109.996094 -11.316406 106.671875 -8.617188 102.980469 -6.289062 C 99.289062 -3.960938 95.347656 -2.0625 91.152344 -0.585938 C 86.972656 0.882812 82.710938 1.980469 78.363281 2.714844 C 74.019531 3.449219 69.8125 3.816406 65.742188 3.816406 C 61.457031 3.816406 57.230469 3.507812 53.058594 2.886719 C 48.878906 2.265625 45.039062 1.390625 41.527344 0.257812 L 41.882812 -0.835938 L 41.554688 0.265625 C 35.085938 -1.664062 29.542969 -4.335938 24.929688 -7.753906 C 20.320312 -11.167969 16.535156 -15.042969 13.570312 -19.375 C 9.941406 -24.476562 7.246094 -30.121094 5.488281 -36.3125 C 3.734375 -42.476562 2.859375 -48.78125 2.859375 -55.230469 Z M 5.152344 -55.230469 C 5.152344 -48.996094 6 -42.898438 7.695312 -36.9375 C 9.382812 -31.003906 11.972656 -25.582031 15.464844 -20.671875 C 18.28125 -16.550781 21.894531 -12.859375 26.296875 -9.597656 C 30.691406 -6.339844 35.996094 -3.785156 42.210938 -1.933594 L 42.234375 -1.925781 C 45.621094 -0.832031 49.34375 0.015625 53.394531 0.617188 C 57.457031 1.222656 61.570312 1.523438 65.742188 1.523438 C 69.683594 1.523438 73.761719 1.167969 77.980469 0.453125 C 82.199219 -0.257812 86.335938 -1.328125 90.390625 -2.75 C 94.425781 -4.167969 98.210938 -5.996094 101.753906 -8.230469 C 105.292969 -10.460938 108.472656 -13.042969 111.300781 -15.980469 L 112.128906 -15.183594 L 111.285156 -15.960938 C 115.085938 -20.089844 118.351562 -25.425781 121.082031 -31.976562 C 123.804688 -38.511719 125.164062 -45.871094 125.164062 -54.0625 C 125.164062 -61.613281 124.015625 -68.894531 121.71875 -75.894531 C 119.433594 -82.859375 115.894531 -88.953125 111.109375 -94.175781 C 106.222656 -99.601562 99.972656 -103.8125 92.351562 -106.804688 C 84.703125 -109.8125 75.832031 -111.316406 65.742188 -111.316406 C 57.304688 -111.316406 49.390625 -110.054688 42 -107.539062 C 34.640625 -105.03125 28.234375 -101.351562 22.789062 -96.503906 C 17.347656 -91.660156 13.046875 -85.78125 9.886719 -78.863281 C 6.730469 -71.953125 5.152344 -64.074219 5.152344 -55.230469 Z M 5.152344 -55.230469 "/></g></g></g><g fill="#ff751f" fill-opacity="1"><g transform="translate(839.224605, 114.945112)"><g><path d="M 66.054688 -109.792969 L 66.054688 -104.535156 L 64.972656 -104.476562 C 63.304688 -104.382812 62.1875 -103.992188 61.621094 -103.304688 C 61.015625 -102.574219 60.714844 -101.84375 60.714844 -101.117188 C 60.714844 -99.902344 61.375 -98.304688 62.691406 -96.328125 C 64.101562 -94.210938 65.566406 -92.34375 67.082031 -90.71875 L 67.09375 -90.707031 L 86.460938 -68.667969 L 85.597656 -67.910156 L 84.449219 -67.910156 L 84.449219 -89.601562 C 84.449219 -93.144531 84.109375 -95.914062 83.429688 -97.90625 C 82.753906 -99.875 81.972656 -101.355469 81.074219 -102.351562 C 80.234375 -103.285156 79.34375 -103.863281 78.40625 -104.085938 C 77.328125 -104.34375 76.332031 -104.472656 75.417969 -104.472656 L 74.273438 -104.472656 L 74.273438 -110.9375 L 110.105469 -110.9375 L 110.105469 -104.472656 L 108.957031 -104.472656 C 107.851562 -104.472656 106.828125 -104.324219 105.882812 -104.027344 C 105.046875 -103.761719 104.257812 -103.164062 103.511719 -102.234375 C 102.730469 -101.257812 102.109375 -99.792969 101.648438 -97.847656 C 101.167969 -95.820312 100.929688 -93.128906 100.929688 -89.769531 L 100.929688 -20.191406 C 100.929688 -16.722656 101.167969 -14.003906 101.644531 -12.035156 C 102.109375 -10.140625 102.703125 -8.726562 103.433594 -7.800781 C 104.132812 -6.921875 104.929688 -6.320312 105.832031 -6.003906 C 106.824219 -5.660156 107.863281 -5.484375 108.957031 -5.484375 L 110.105469 -5.484375 L 110.105469 0.980469 L 74.273438 0.980469 L 74.273438 -5.144531 L 75.230469 -5.304688 C 77.652344 -5.707031 79.523438 -6.597656 80.851562 -7.972656 C 82.136719 -9.304688 82.78125 -11.210938 82.78125 -13.683594 C 82.78125 -17.34375 81.929688 -20.4375 80.226562 -22.96875 C 78.410156 -25.664062 76.40625 -28.328125 74.203125 -30.96875 L 23.660156 -89.183594 L 24.527344 -89.9375 L 25.675781 -89.9375 L 25.675781 -20.023438 C 25.675781 -16.664062 25.914062 -13.972656 26.394531 -11.945312 C 26.859375 -9.984375 27.460938 -8.515625 28.199219 -7.53125 C 28.886719 -6.613281 29.640625 -6.027344 30.464844 -5.765625 C 31.40625 -5.46875 32.433594 -5.320312 33.539062 -5.320312 L 34.683594 -5.320312 L 34.683594 1.148438 L 0.0195312 1.148438 L 0.0195312 -5.320312 L 1.167969 -5.320312 C 2.167969 -5.320312 3.171875 -5.46875 4.175781 -5.769531 C 5.058594 -6.035156 5.871094 -6.632812 6.613281 -7.558594 C 7.394531 -8.535156 8.015625 -10 8.476562 -11.945312 C 8.957031 -13.972656 9.199219 -16.664062 9.199219 -20.023438 L 9.199219 -89.769531 C 9.199219 -93.117188 8.933594 -95.800781 8.402344 -97.820312 C 7.882812 -99.789062 7.253906 -101.269531 6.507812 -102.261719 C 5.824219 -103.175781 5.046875 -103.761719 4.175781 -104.023438 C 3.171875 -104.324219 2.167969 -104.472656 1.167969 -104.472656 L 0.0195312 -104.472656 L 0.0195312 -110.9375 L 66.054688 -110.9375 Z M 63.761719 -109.792969 L 64.90625 -109.792969 L 64.90625 -108.644531 L 1.167969 -108.644531 L 1.167969 -109.792969 L 2.316406 -109.792969 L 2.316406 -105.621094 L 1.167969 -105.621094 L 1.167969 -106.769531 C 2.394531 -106.769531 3.613281 -106.585938 4.835938 -106.21875 C 6.1875 -105.8125 7.359375 -104.953125 8.34375 -103.640625 C 9.265625 -102.40625 10.027344 -100.664062 10.621094 -98.402344 C 11.203125 -96.195312 11.492188 -93.316406 11.492188 -89.769531 L 11.492188 -20.023438 C 11.492188 -16.484375 11.230469 -13.617188 10.710938 -11.414062 C 10.171875 -9.136719 9.402344 -7.371094 8.40625 -6.125 C 7.367188 -4.824219 6.175781 -3.976562 4.835938 -3.574219 C 3.613281 -3.207031 2.394531 -3.023438 1.167969 -3.023438 L 1.167969 -4.171875 L 2.316406 -4.171875 L 2.316406 0 L 1.167969 0 L 1.167969 -1.148438 L 33.539062 -1.148438 L 33.539062 0 L 32.390625 0 L 32.390625 -4.171875 L 33.539062 -4.171875 L 33.539062 -3.023438 C 32.195312 -3.023438 30.941406 -3.207031 29.773438 -3.578125 C 28.480469 -3.984375 27.34375 -4.84375 26.363281 -6.152344 C 25.433594 -7.394531 24.699219 -9.148438 24.164062 -11.414062 C 23.640625 -13.617188 23.382812 -16.484375 23.382812 -20.023438 L 23.382812 -93.007812 L 75.96875 -32.4375 C 78.21875 -29.738281 80.269531 -27.007812 82.128906 -24.25 C 84.09375 -21.332031 85.078125 -17.808594 85.078125 -13.683594 C 85.078125 -10.59375 84.21875 -8.15625 82.503906 -6.378906 C 80.824219 -4.640625 78.527344 -3.527344 75.609375 -3.039062 L 75.417969 -4.171875 L 76.566406 -4.171875 L 76.566406 -0.167969 L 75.417969 -0.167969 L 75.417969 -1.3125 L 108.957031 -1.3125 L 108.957031 -0.167969 L 107.8125 -0.167969 L 107.8125 -4.339844 L 108.957031 -4.339844 L 108.957031 -3.191406 C 107.605469 -3.191406 106.308594 -3.40625 105.074219 -3.839844 C 103.753906 -4.300781 102.605469 -5.148438 101.632812 -6.378906 C 100.695312 -7.570312 99.957031 -9.273438 99.417969 -11.492188 C 98.894531 -13.640625 98.632812 -16.539062 98.632812 -20.191406 L 98.632812 -89.769531 C 98.632812 -93.308594 98.894531 -96.175781 99.414062 -98.375 C 99.957031 -100.65625 100.722656 -102.421875 101.722656 -103.667969 C 102.757812 -104.960938 103.914062 -105.808594 105.191406 -106.214844 C 106.359375 -106.582031 107.617188 -106.769531 108.957031 -106.769531 L 108.957031 -105.621094 L 107.8125 -105.621094 L 107.8125 -109.792969 L 108.957031 -109.792969 L 108.957031 -108.644531 L 75.417969 -108.644531 L 75.417969 -109.792969 L 76.566406 -109.792969 L 76.566406 -105.621094 L 75.417969 -105.621094 L 75.417969 -106.769531 C 76.511719 -106.769531 77.683594 -106.617188 78.9375 -106.320312 C 80.339844 -105.988281 81.617188 -105.175781 82.78125 -103.886719 C 83.886719 -102.65625 84.824219 -100.910156 85.597656 -98.652344 C 86.363281 -96.417969 86.746094 -93.402344 86.746094 -89.601562 L 86.746094 -64.867188 L 65.378906 -89.179688 L 66.242188 -89.9375 L 65.402344 -89.152344 C 63.804688 -90.867188 62.261719 -92.835938 60.78125 -95.054688 C 59.207031 -97.417969 58.421875 -99.4375 58.421875 -101.117188 C 58.421875 -102.390625 58.898438 -103.609375 59.851562 -104.765625 C 60.84375 -105.96875 62.507812 -106.636719 64.84375 -106.765625 L 64.90625 -105.621094 L 63.761719 -105.621094 Z M 63.761719 -109.792969 "/></g></g></g></g></g><g transform="matrix(1, 0, 0, 1, 45, 107)"><g clip-path="url(#74f87a390d)"><g fill="#ff751f" fill-opacity="1"><g transform="translate(0.583059, 152.603555)"><g><path d="M 77.199219 -130.175781 C 72.164062 -130.175781 68.367188 -129.332031 65.804688 -127.648438 C 63.445312 -126.09375 62.265625 -122.40625 62.265625 -116.578125 L 62.265625 -82.984375 L 60.734375 -82.984375 L 60.351562 -84.464844 C 64.296875 -85.488281 68.316406 -86.804688 72.414062 -88.410156 C 76.445312 -89.996094 80.152344 -92.011719 83.535156 -94.457031 C 86.863281 -96.863281 89.585938 -99.730469 91.707031 -103.050781 C 93.769531 -106.285156 94.804688 -110.128906 94.804688 -114.574219 C 94.804688 -118.933594 93.449219 -122.636719 90.738281 -125.683594 C 88.078125 -128.679688 83.5625 -130.175781 77.199219 -130.175781 Z M 77.199219 -133.234375 C 84.480469 -133.234375 89.753906 -131.394531 93.027344 -127.714844 C 96.25 -124.089844 97.863281 -119.710938 97.863281 -114.574219 C 97.863281 -109.53125 96.667969 -105.140625 94.285156 -101.40625 C 91.957031 -97.757812 88.96875 -94.613281 85.328125 -91.976562 C 81.734375 -89.382812 77.804688 -87.242188 73.53125 -85.566406 C 69.320312 -83.910156 65.183594 -82.558594 61.121094 -81.503906 L 59.207031 -81.007812 L 59.207031 -116.578125 C 59.207031 -123.503906 60.84375 -128.046875 64.121094 -130.203125 C 67.195312 -132.226562 71.554688 -133.234375 77.199219 -133.234375 Z M 104.785156 -147.917969 C 113.082031 -147.917969 119.855469 -147.195312 125.105469 -145.75 C 130.417969 -144.289062 134.527344 -142.417969 137.433594 -140.140625 C 140.40625 -137.808594 142.425781 -135.171875 143.488281 -132.226562 C 144.515625 -129.386719 145.027344 -126.621094 145.027344 -123.917969 C 145.027344 -120.800781 144.523438 -117.609375 143.511719 -114.347656 C 142.5 -111.070312 140.753906 -107.730469 138.28125 -104.332031 C 135.828125 -100.957031 132.507812 -97.597656 128.324219 -94.25 C 124.167969 -90.921875 118.933594 -87.605469 112.617188 -84.296875 L 111.90625 -85.652344 L 112.976562 -86.746094 C 121.078125 -78.792969 128.351562 -69.5 134.792969 -58.859375 C 141.234375 -48.226562 146.472656 -36.699219 150.515625 -24.277344 C 152.796875 -17.421875 155.210938 -12.863281 157.753906 -10.597656 C 160.226562 -8.390625 162.914062 -7.222656 165.816406 -7.089844 L 167.273438 -7.023438 L 167.273438 1.53125 L 89.464844 1.53125 L 89.464844 -7.089844 L 90.992188 -7.089844 C 93.273438 -7.089844 95.195312 -7.484375 96.761719 -8.265625 C 97.976562 -8.871094 98.585938 -10.417969 98.585938 -12.902344 C 98.585938 -16.09375 97.40625 -20.253906 95.054688 -25.390625 C 92.632812 -30.675781 89.730469 -36.074219 86.351562 -41.582031 C 82.960938 -47.113281 79.496094 -52.347656 75.957031 -57.285156 C 72.425781 -62.214844 69.566406 -65.917969 67.375 -68.402344 L 68.523438 -69.414062 L 69.019531 -67.964844 L 61.230469 -65.296875 L 60.734375 -66.742188 L 62.265625 -66.742188 L 62.265625 -26.695312 C 62.265625 -22.074219 62.585938 -18.449219 63.222656 -15.824219 C 63.835938 -13.3125 64.65625 -11.445312 65.6875 -10.21875 C 66.699219 -9.015625 67.785156 -8.203125 68.941406 -7.777344 C 70.179688 -7.320312 71.523438 -7.089844 72.972656 -7.089844 L 74.5 -7.089844 L 74.5 1.53125 L 1.585938 1.53125 L 1.585938 -7.089844 L 3.113281 -7.089844 C 4.574219 -7.089844 5.960938 -7.324219 7.28125 -7.785156 C 8.472656 -8.199219 9.53125 -9.027344 10.457031 -10.261719 C 11.441406 -11.578125 12.246094 -13.503906 12.863281 -16.046875 C 13.503906 -18.671875 13.820312 -22.222656 13.820312 -26.695312 L 13.820312 -119.691406 C 13.820312 -124.160156 13.46875 -127.738281 12.757812 -130.425781 C 12.070312 -133.050781 11.226562 -135.027344 10.234375 -136.351562 C 9.324219 -137.566406 8.285156 -138.347656 7.125 -138.695312 C 5.785156 -139.097656 4.449219 -139.296875 3.113281 -139.296875 L 1.585938 -139.296875 L 1.585938 -147.917969 Z M 104.785156 -144.859375 L 3.113281 -144.859375 L 3.113281 -146.390625 L 4.644531 -146.390625 L 4.644531 -140.828125 L 3.113281 -140.828125 L 3.113281 -142.355469 C 4.746094 -142.355469 6.378906 -142.113281 8.003906 -141.625 C 9.808594 -141.085938 11.367188 -139.9375 12.679688 -138.1875 C 13.914062 -136.542969 14.925781 -134.214844 15.71875 -131.207031 C 16.492188 -128.261719 16.878906 -124.421875 16.878906 -119.691406 L 16.878906 -26.695312 C 16.878906 -21.976562 16.53125 -18.1875 15.835938 -15.324219 C 15.117188 -12.375 14.140625 -10.078125 12.902344 -8.425781 C 11.605469 -6.695312 10.066406 -5.519531 8.292969 -4.898438 C 6.644531 -4.320312 4.917969 -4.03125 3.113281 -4.03125 L 3.113281 -5.5625 L 4.644531 -5.5625 L 4.644531 0 L 3.113281 0 L 3.113281 -1.53125 L 72.972656 -1.53125 L 72.972656 0 L 71.441406 0 L 71.441406 -5.5625 L 72.972656 -5.5625 L 72.972656 -4.03125 C 71.160156 -4.03125 69.460938 -4.324219 67.882812 -4.90625 C 66.21875 -5.519531 64.707031 -6.632812 63.347656 -8.246094 C 62.007812 -9.839844 60.976562 -12.125 60.25 -15.101562 C 59.554688 -17.964844 59.207031 -21.828125 59.207031 -26.695312 L 59.207031 -67.835938 L 68.992188 -71.191406 L 69.667969 -70.425781 C 71.929688 -67.863281 74.851562 -64.078125 78.441406 -59.070312 C 82.023438 -54.070312 85.527344 -48.773438 88.960938 -43.179688 C 92.402344 -37.566406 95.359375 -32.0625 97.835938 -26.667969 C 100.375 -21.125 101.644531 -16.539062 101.644531 -12.902344 C 101.644531 -9.160156 100.472656 -6.699219 98.128906 -5.527344 C 96.132812 -4.53125 93.753906 -4.03125 90.992188 -4.03125 L 90.992188 -5.5625 L 92.523438 -5.5625 L 92.523438 0 L 90.992188 0 L 90.992188 -1.53125 L 165.746094 -1.53125 L 165.746094 0 L 164.214844 0 L 164.214844 -5.5625 L 165.746094 -5.5625 L 165.675781 -4.035156 C 162.050781 -4.199219 158.730469 -5.625 155.714844 -8.3125 C 152.769531 -10.941406 150.066406 -15.949219 147.605469 -23.332031 C 143.636719 -35.53125 138.496094 -46.84375 132.179688 -57.273438 C 125.867188 -67.695312 118.753906 -76.789062 110.835938 -84.5625 L 109.335938 -86.035156 L 111.195312 -87.007812 C 117.339844 -90.226562 122.410156 -93.433594 126.414062 -96.636719 C 130.382812 -99.8125 133.515625 -102.980469 135.808594 -106.132812 C 138.082031 -109.257812 139.675781 -112.296875 140.589844 -115.25 C 141.507812 -118.21875 141.96875 -121.105469 141.96875 -123.917969 C 141.96875 -126.261719 141.515625 -128.683594 140.613281 -131.1875 C 139.75 -133.582031 138.058594 -135.761719 135.546875 -137.734375 C 132.964844 -139.757812 129.210938 -141.445312 124.292969 -142.800781 C 119.308594 -144.175781 112.804688 -144.859375 104.785156 -144.859375 Z M 104.785156 -144.859375 "/></g></g></g></g></g><g transform="matrix(1, 0, 0, 1, 1152, 109)"><g clip-path="url(#699e6f8c8b)"><g clip-path="url(#08b67e11b6)"><g fill="#ff751f" fill-opacity="1"><g transform="translate(0.582501, 154.421197)"><g><path d="M 108.570312 -146.808594 C 110.507812 -146.808594 112.742188 -147.160156 115.277344 -147.863281 C 117.648438 -148.523438 119.625 -149.769531 121.199219 -151.613281 L 123.464844 -154.253906 L 129.84375 -101.035156 L 122.484375 -99.984375 L 122.046875 -101.121094 C 120.617188 -104.84375 118.535156 -108.5 115.804688 -112.09375 C 113.070312 -115.691406 109.90625 -118.855469 106.308594 -121.589844 C 102.714844 -124.320312 98.796875 -126.515625 94.554688 -128.167969 C 90.355469 -129.804688 86.054688 -130.621094 81.648438 -130.621094 C 79.09375 -130.621094 76.429688 -130.300781 73.648438 -129.660156 C 70.914062 -129.027344 68.425781 -128.046875 66.1875 -126.71875 C 64.003906 -125.421875 62.195312 -123.753906 60.765625 -121.707031 C 59.390625 -119.746094 58.707031 -117.367188 58.707031 -114.574219 C 58.707031 -112.730469 59.027344 -111.132812 59.667969 -109.78125 C 60.296875 -108.464844 61.390625 -107.253906 62.957031 -106.144531 C 64.628906 -104.960938 66.882812 -103.835938 69.726562 -102.769531 C 72.660156 -101.671875 76.335938 -100.457031 80.753906 -99.132812 L 106.78125 -91.347656 C 112.085938 -89.679688 117.046875 -87.558594 121.660156 -84.988281 C 126.320312 -82.390625 130.367188 -79.296875 133.8125 -75.699219 C 137.273438 -72.085938 139.964844 -68.121094 141.890625 -63.808594 C 143.832031 -59.457031 144.804688 -54.871094 144.804688 -50.058594 C 144.804688 -32.042969 138.441406 -18.320312 125.71875 -8.894531 C 113.140625 0.429688 94.445312 5.089844 69.636719 5.089844 C 63.335938 5.089844 57.445312 4.714844 51.964844 3.960938 C 46.519531 3.214844 41.925781 2.46875 38.1875 1.722656 L 38.488281 0.222656 L 38.222656 1.730469 C 35.691406 1.28125 33.121094 0.796875 30.511719 0.277344 C 28.015625 -0.222656 25.78125 -0.472656 23.804688 -0.472656 C 21.917969 -0.472656 20.097656 -0.136719 18.347656 0.539062 C 16.621094 1.203125 14.796875 2.496094 12.871094 4.417969 L 10.527344 6.765625 L 5.257812 -60.054688 L 13.066406 -61.117188 L 13.300781 -59.640625 C 14.3125 -53.292969 16.292969 -47.453125 19.246094 -42.121094 C 22.199219 -36.792969 25.910156 -32.183594 30.371094 -28.296875 C 34.835938 -24.40625 39.914062 -21.34375 45.609375 -19.109375 C 51.289062 -16.882812 57.371094 -15.769531 63.851562 -15.769531 C 69.933594 -15.769531 74.945312 -16.339844 78.886719 -17.488281 C 82.773438 -18.617188 85.898438 -20.121094 88.261719 -22 C 90.566406 -23.828125 92.1875 -25.953125 93.128906 -28.363281 C 94.097656 -30.855469 94.582031 -33.488281 94.582031 -36.265625 C 94.582031 -37.441406 94.382812 -38.660156 93.984375 -39.917969 C 93.609375 -41.101562 92.761719 -42.386719 91.441406 -43.773438 C 90.066406 -45.21875 87.96875 -46.714844 85.140625 -48.273438 C 82.257812 -49.855469 78.34375 -51.449219 73.390625 -53.050781 L 49.582031 -60.839844 C 42.394531 -63.085938 36.277344 -65.488281 31.234375 -68.046875 C 26.058594 -70.675781 21.917969 -74.007812 18.8125 -78.046875 L 20.023438 -78.980469 L 18.835938 -78.015625 C 16.214844 -81.25 14.136719 -84.792969 12.597656 -88.644531 C 11.039062 -92.535156 10.261719 -96.730469 10.261719 -101.226562 C 10.261719 -108.851562 11.5625 -115.722656 14.164062 -121.847656 C 16.785156 -128.007812 20.785156 -133.320312 26.167969 -137.777344 C 31.203125 -141.902344 37.292969 -145.214844 44.433594 -147.722656 C 51.570312 -150.226562 59.449219 -151.480469 68.078125 -151.480469 C 75.867188 -151.480469 82.800781 -151.027344 88.882812 -150.128906 C 94.925781 -149.230469 99.601562 -148.410156 102.902344 -147.660156 C 105.597656 -147.089844 107.488281 -146.808594 108.570312 -146.808594 Z M 108.570312 -143.746094 C 107.277344 -143.746094 105.160156 -144.058594 102.222656 -144.675781 C 98.996094 -145.410156 94.402344 -146.21875 88.433594 -147.101562 C 82.5 -147.980469 75.714844 -148.417969 68.078125 -148.417969 C 59.796875 -148.417969 52.253906 -147.226562 45.445312 -144.835938 C 38.644531 -142.449219 32.867188 -139.308594 28.117188 -135.421875 C 23.117188 -131.28125 19.40625 -126.355469 16.980469 -120.652344 C 14.539062 -114.910156 13.320312 -108.433594 13.320312 -101.226562 C 13.320312 -97.121094 14.027344 -93.308594 15.4375 -89.78125 C 16.863281 -86.214844 18.789062 -82.9375 21.210938 -79.941406 L 21.234375 -79.910156 C 24.0625 -76.238281 27.855469 -73.195312 32.617188 -70.777344 C 37.511719 -68.292969 43.480469 -65.949219 50.53125 -63.746094 L 74.332031 -55.960938 C 79.46875 -54.300781 83.5625 -52.628906 86.613281 -50.953125 C 89.71875 -49.246094 92.066406 -47.554688 93.65625 -45.882812 C 95.304688 -44.15625 96.386719 -42.472656 96.902344 -40.839844 C 97.394531 -39.28125 97.640625 -37.753906 97.640625 -36.265625 C 97.640625 -33.105469 97.085938 -30.101562 95.976562 -27.253906 C 94.839844 -24.328125 92.902344 -21.777344 90.164062 -19.605469 C 87.484375 -17.476562 84.011719 -15.792969 79.738281 -14.550781 C 75.523438 -13.324219 70.226562 -12.707031 63.851562 -12.707031 C 56.984375 -12.707031 50.53125 -13.894531 44.492188 -16.261719 C 38.46875 -18.625 33.09375 -21.867188 28.363281 -25.988281 C 23.628906 -30.109375 19.699219 -34.996094 16.570312 -40.640625 C 13.445312 -46.285156 11.347656 -52.457031 10.28125 -59.160156 L 11.792969 -59.402344 L 11.996094 -57.886719 L 7.101562 -57.21875 L 6.898438 -58.734375 L 8.421875 -58.855469 L 13.316406 3.21875 L 11.792969 3.335938 L 10.710938 2.253906 C 12.9375 0.0273438 15.117188 -1.5 17.25 -2.316406 C 19.355469 -3.128906 21.539062 -3.53125 23.804688 -3.53125 C 25.984375 -3.53125 28.417969 -3.261719 31.113281 -2.722656 C 33.695312 -2.207031 36.246094 -1.726562 38.753906 -1.285156 L 38.769531 -1.28125 L 38.789062 -1.277344 C 42.464844 -0.542969 46.996094 0.195312 52.378906 0.933594 C 57.722656 1.664062 63.476562 2.03125 69.636719 2.03125 C 93.769531 2.03125 111.859375 -2.429688 123.898438 -11.351562 C 135.796875 -20.167969 141.746094 -33.070312 141.746094 -50.058594 C 141.746094 -54.4375 140.863281 -58.605469 139.097656 -62.558594 C 137.316406 -66.550781 134.816406 -70.226562 131.601562 -73.582031 C 128.371094 -76.957031 124.5625 -79.867188 120.171875 -82.316406 C 115.738281 -84.785156 110.984375 -86.820312 105.90625 -88.414062 L 79.875 -96.203125 C 75.390625 -97.546875 71.652344 -98.78125 68.652344 -99.90625 C 65.5625 -101.066406 63.074219 -102.3125 61.1875 -103.648438 C 59.191406 -105.0625 57.765625 -106.667969 56.90625 -108.46875 C 56.066406 -110.234375 55.648438 -112.269531 55.648438 -114.574219 C 55.648438 -118.011719 56.519531 -120.972656 58.257812 -123.460938 C 59.941406 -125.867188 62.066406 -127.828125 64.628906 -129.351562 C 67.136719 -130.839844 69.914062 -131.9375 72.960938 -132.640625 C 75.96875 -133.332031 78.863281 -133.679688 81.648438 -133.679688 C 86.4375 -133.679688 91.109375 -132.792969 95.664062 -131.019531 C 100.171875 -129.261719 104.335938 -126.929688 108.160156 -124.023438 C 111.976562 -121.121094 115.339844 -117.761719 118.242188 -113.945312 C 121.144531 -110.121094 123.367188 -106.210938 124.902344 -102.222656 L 123.472656 -101.671875 L 123.257812 -103.1875 L 127.929688 -103.851562 L 128.148438 -102.339844 L 126.628906 -102.15625 L 120.84375 -150.433594 L 122.363281 -150.617188 L 123.523438 -149.621094 C 121.542969 -147.308594 119.066406 -145.742188 116.097656 -144.914062 C 113.292969 -144.136719 110.785156 -143.746094 108.570312 -143.746094 Z M 108.570312 -143.746094 "/></g></g></g></g></g></g><g clip-path="url(#9365376bf5)"><path stroke-linecap="butt" transform="matrix(0.749721, 0, 0, 0.749721, 902.479913, 282.377623)" fill="none" stroke-linejoin="miter" d="M 0.000741723 0.00171129 L 527.009066 0.00171129 L 527.009066 14.626937 L 0.000741723 14.626937 Z M 0.000741723 0.00171129 " stroke="#ff751f" stroke-width="8" stroke-opacity="1" stroke-miterlimit="4"/></g><g transform="matrix(1, 0, 0, 1, 444, 246)"><g clip-path="url(#0f18a6e815)"><g fill="#ff751f" fill-opacity="1"><g transform="translate(1.560777, 115.108576)"><g><path d="M 10.773438 -100.441406 C 18.195312 -104.714844 25.789062 -107.976562 33.550781 -110.226562 C 41.332031 -112.480469 49.835938 -113.609375 59.066406 -113.609375 C 63.945312 -113.609375 68.960938 -112.957031 74.117188 -111.65625 C 79.296875 -110.34375 84.027344 -108.324219 88.300781 -105.585938 C 92.613281 -102.828125 96.117188 -99.378906 98.824219 -95.234375 C 101.5625 -91.039062 102.929688 -86.105469 102.929688 -80.425781 C 102.929688 -75.816406 101.980469 -71.328125 100.082031 -66.953125 C 98.207031 -62.640625 95.742188 -58.496094 92.679688 -54.527344 C 89.636719 -50.582031 86.089844 -46.753906 82.035156 -43.039062 C 78.003906 -39.34375 73.808594 -35.820312 69.445312 -32.460938 L 57.269531 -22.957031 L 56.566406 -23.859375 L 56.566406 -25.007812 L 83.09375 -25.007812 C 87.007812 -25.007812 90.171875 -25.304688 92.582031 -25.894531 C 94.988281 -26.480469 96.894531 -27.164062 98.304688 -27.949219 C 99.671875 -28.707031 100.695312 -29.527344 101.378906 -30.40625 C 102.109375 -31.347656 102.683594 -32.226562 103.09375 -33.050781 L 103.574219 -34.011719 L 108.789062 -31.816406 L 93.269531 5.429688 L 92.109375 3.40625 C 91.78125 2.828125 91.164062 2.3125 90.257812 1.859375 C 89.304688 1.386719 87.308594 1.148438 84.261719 1.148438 L 3.25 1.148438 L 6.175781 -0.933594 C 12.710938 -5.585938 19.523438 -10.960938 26.617188 -17.054688 C 33.6875 -23.132812 40.125 -29.625 45.925781 -36.527344 C 51.710938 -43.414062 56.472656 -50.492188 60.21875 -57.757812 C 63.914062 -64.933594 65.761719 -71.933594 65.761719 -78.757812 C 65.761719 -81.28125 65.34375 -83.617188 64.507812 -85.765625 C 63.671875 -87.90625 62.46875 -89.816406 60.902344 -91.488281 C 59.335938 -93.15625 57.511719 -94.460938 55.425781 -95.398438 C 53.351562 -96.332031 51.0625 -96.796875 48.554688 -96.796875 C 45.125 -96.796875 41.855469 -96.261719 38.75 -95.191406 C 35.675781 -94.132812 32.96875 -92.542969 30.640625 -90.421875 C 28.308594 -88.304688 26.453125 -85.707031 25.074219 -82.625 C 23.695312 -79.550781 23.003906 -75.921875 23.003906 -71.75 L 23.003906 -70.84375 L 17.511719 -69.535156 L 10.027344 -100.011719 Z M 11.917969 -98.453125 L 11.347656 -99.445312 L 12.460938 -99.722656 L 19.46875 -71.1875 L 18.355469 -70.914062 L 18.089844 -72.03125 L 21.59375 -72.863281 L 21.859375 -71.75 L 20.710938 -71.75 C 20.710938 -76.25 21.46875 -80.1875 22.980469 -83.5625 C 24.492188 -86.9375 26.53125 -89.789062 29.097656 -92.121094 C 31.660156 -94.449219 34.628906 -96.199219 38.003906 -97.359375 C 41.351562 -98.515625 44.867188 -99.09375 48.554688 -99.09375 C 51.390625 -99.09375 53.992188 -98.558594 56.367188 -97.488281 C 58.730469 -96.425781 60.800781 -94.949219 62.574219 -93.058594 C 64.34375 -91.167969 65.699219 -89.015625 66.644531 -86.597656 C 67.585938 -84.183594 68.058594 -81.570312 68.058594 -78.757812 C 68.058594 -71.5625 66.125 -64.214844 62.257812 -56.707031 C 58.433594 -49.289062 53.578125 -42.070312 47.683594 -35.054688 C 41.800781 -28.054688 35.277344 -21.472656 28.113281 -15.316406 C 20.964844 -9.175781 14.097656 -3.757812 7.507812 0.933594 L 6.839844 0 L 6.839844 -1.148438 L 84.261719 -1.148438 C 87.667969 -1.148438 90.007812 -0.828125 91.285156 -0.191406 C 92.601562 0.46875 93.542969 1.289062 94.101562 2.265625 L 93.105469 2.835938 L 92.046875 2.394531 L 106.230469 -31.644531 L 107.289062 -31.203125 L 106.84375 -30.144531 L 103.675781 -31.480469 L 104.117188 -32.539062 L 105.144531 -32.023438 C 104.667969 -31.066406 104.015625 -30.058594 103.1875 -28.996094 C 102.316406 -27.871094 101.058594 -26.855469 99.421875 -25.945312 C 97.828125 -25.058594 95.730469 -24.300781 93.128906 -23.664062 C 90.535156 -23.03125 87.191406 -22.714844 83.09375 -22.714844 L 53.230469 -22.714844 L 68.046875 -34.28125 C 72.359375 -37.597656 76.503906 -41.082031 80.484375 -44.730469 C 84.441406 -48.355469 87.898438 -52.089844 90.863281 -55.929688 C 93.808594 -59.75 96.179688 -63.726562 97.976562 -67.867188 C 99.75 -71.949219 100.636719 -76.132812 100.636719 -80.425781 C 100.636719 -85.648438 99.390625 -90.167969 96.902344 -93.980469 C 94.378906 -97.847656 91.097656 -101.074219 87.066406 -103.652344 C 83 -106.257812 78.496094 -108.183594 73.554688 -109.429688 C 68.585938 -110.6875 63.753906 -111.316406 59.066406 -111.316406 C 50.054688 -111.316406 41.761719 -110.21875 34.191406 -108.023438 C 26.605469 -105.824219 19.179688 -102.632812 11.917969 -98.453125 Z M 11.917969 -98.453125 "/></g></g></g><g fill="#ff751f" fill-opacity="1"><g transform="translate(115.023809, 115.108576)"><g><path d="M 56.621094 -97.46875 C 54.527344 -97.367188 52.410156 -96.476562 50.265625 -94.789062 C 48.085938 -93.078125 45.976562 -89.808594 43.9375 -84.984375 C 42.53125 -81.625 41.472656 -77.601562 40.761719 -72.914062 C 40.046875 -68.1875 39.691406 -62.179688 39.691406 -54.894531 C 39.691406 -47.945312 40.046875 -42.019531 40.765625 -37.125 C 41.472656 -32.269531 42.476562 -28.273438 43.777344 -25.132812 L 43.78125 -25.121094 L 43.785156 -25.105469 C 44.863281 -22.304688 46.011719 -20.054688 47.234375 -18.355469 C 48.445312 -16.675781 49.640625 -15.394531 50.824219 -14.519531 C 52 -13.652344 53.054688 -13.070312 53.988281 -12.773438 C 54.933594 -12.476562 55.792969 -12.328125 56.566406 -12.328125 C 57.558594 -12.328125 58.609375 -12.503906 59.722656 -12.855469 C 60.804688 -13.199219 61.925781 -13.855469 63.09375 -14.816406 C 64.285156 -15.800781 65.460938 -17.164062 66.621094 -18.90625 C 67.796875 -20.667969 68.925781 -23.007812 70.003906 -25.925781 C 72.40625 -32.039062 73.660156 -41.53125 73.773438 -54.40625 C 73.773438 -59.589844 73.578125 -64.136719 73.195312 -68.046875 C 72.808594 -71.945312 72.261719 -75.371094 71.550781 -78.320312 C 70.84375 -81.257812 70.03125 -83.746094 69.117188 -85.796875 C 68.195312 -87.859375 67.25 -89.640625 66.277344 -91.152344 C 64.71875 -93.648438 63.035156 -95.347656 61.222656 -96.25 C 59.410156 -97.160156 57.886719 -97.5625 56.652344 -97.46875 Z M 56.511719 -99.757812 L 56.566406 -98.613281 L 56.476562 -99.757812 C 58.132812 -99.882812 60.058594 -99.398438 62.25 -98.304688 C 64.445312 -97.207031 66.429688 -95.234375 68.207031 -92.390625 C 69.242188 -90.785156 70.242188 -88.898438 71.210938 -86.734375 C 72.183594 -84.554688 73.042969 -81.929688 73.78125 -78.859375 C 74.515625 -75.804688 75.082031 -72.277344 75.476562 -68.273438 C 75.871094 -64.289062 76.066406 -59.65625 76.066406 -54.386719 C 75.953125 -41.230469 74.652344 -31.476562 72.15625 -25.128906 C 71.011719 -22.042969 69.804688 -19.542969 68.53125 -17.632812 C 67.246094 -15.707031 65.917969 -14.175781 64.554688 -13.046875 C 63.160156 -11.898438 61.78125 -11.105469 60.417969 -10.671875 C 59.078125 -10.246094 57.796875 -10.03125 56.566406 -10.03125 C 55.558594 -10.03125 54.46875 -10.21875 53.300781 -10.585938 C 52.121094 -10.957031 50.839844 -11.65625 49.457031 -12.675781 C 48.082031 -13.691406 46.71875 -15.140625 45.371094 -17.015625 C 44.035156 -18.878906 42.792969 -21.300781 41.644531 -24.28125 L 42.714844 -24.695312 L 41.65625 -24.257812 C 40.285156 -27.570312 39.230469 -31.75 38.492188 -36.792969 C 37.761719 -41.796875 37.398438 -47.832031 37.398438 -54.894531 C 37.398438 -62.296875 37.761719 -68.414062 38.496094 -73.253906 C 39.230469 -78.132812 40.34375 -82.339844 41.824219 -85.878906 C 44.015625 -91.066406 46.355469 -94.636719 48.847656 -96.59375 C 51.375 -98.582031 53.929688 -99.636719 56.511719 -99.757812 Z M 5.195312 -53.226562 C 5.195312 -60.785156 6.207031 -68.175781 8.238281 -75.398438 C 10.28125 -82.652344 13.429688 -89.121094 17.6875 -94.796875 C 21.960938 -100.496094 27.316406 -105.050781 33.75 -108.46875 C 40.203125 -111.894531 47.808594 -113.609375 56.566406 -113.609375 C 65.085938 -113.609375 72.570312 -112.011719 79.015625 -108.816406 C 85.449219 -105.628906 90.863281 -101.328125 95.25 -95.914062 C 99.625 -90.515625 102.894531 -84.265625 105.050781 -77.171875 C 107.195312 -70.109375 108.269531 -62.742188 108.269531 -55.0625 C 108.269531 -47.378906 107.140625 -40.003906 104.878906 -32.9375 C 102.609375 -25.851562 99.289062 -19.582031 94.917969 -14.132812 C 90.53125 -8.664062 85.09375 -4.304688 78.601562 -1.058594 C 72.101562 2.191406 64.644531 3.816406 56.230469 3.816406 C 48.046875 3.816406 40.785156 2.277344 34.453125 -0.804688 C 28.132812 -3.878906 22.78125 -8.039062 18.390625 -13.28125 C 14.011719 -18.511719 10.714844 -24.59375 8.5 -31.519531 C 6.296875 -38.417969 5.195312 -45.65625 5.195312 -53.226562 Z M 7.488281 -53.226562 C 7.488281 -45.894531 8.554688 -38.890625 10.6875 -32.21875 C 12.808594 -25.578125 15.964844 -19.753906 20.152344 -14.753906 C 24.328125 -9.761719 29.433594 -5.800781 35.457031 -2.867188 C 41.472656 0.0585938 48.398438 1.523438 56.230469 1.523438 C 64.28125 1.523438 71.398438 -0.0234375 77.578125 -3.113281 C 83.765625 -6.207031 88.953125 -10.359375 93.128906 -15.566406 C 97.324219 -20.796875 100.511719 -26.820312 102.691406 -33.636719 C 104.882812 -40.476562 105.976562 -47.617188 105.976562 -55.0625 C 105.976562 -62.511719 104.933594 -69.660156 102.855469 -76.503906 C 100.785156 -83.3125 97.65625 -89.300781 93.464844 -94.46875 C 89.289062 -99.625 84.132812 -103.722656 77.996094 -106.761719 C 71.871094 -109.796875 64.726562 -111.316406 56.566406 -111.316406 C 48.191406 -111.316406 40.945312 -109.691406 34.828125 -106.441406 C 28.691406 -103.1875 23.589844 -98.84375 19.523438 -93.417969 C 15.4375 -87.972656 12.410156 -81.757812 10.449219 -74.773438 C 8.472656 -67.757812 7.488281 -60.574219 7.488281 -53.226562 Z M 7.488281 -53.226562 "/></g></g></g><g fill="#ff751f" fill-opacity="1"><g transform="translate(228.48684, 115.108576)"><g><path d="M 10.773438 -100.441406 C 18.195312 -104.714844 25.789062 -107.976562 33.550781 -110.226562 C 41.332031 -112.480469 49.835938 -113.609375 59.066406 -113.609375 C 63.945312 -113.609375 68.960938 -112.957031 74.117188 -111.65625 C 79.296875 -110.34375 84.027344 -108.324219 88.300781 -105.585938 C 92.613281 -102.828125 96.117188 -99.378906 98.824219 -95.234375 C 101.5625 -91.039062 102.929688 -86.105469 102.929688 -80.425781 C 102.929688 -75.816406 101.980469 -71.328125 100.082031 -66.953125 C 98.207031 -62.640625 95.742188 -58.496094 92.679688 -54.527344 C 89.636719 -50.582031 86.089844 -46.753906 82.035156 -43.039062 C 78.003906 -39.34375 73.808594 -35.820312 69.445312 -32.460938 L 57.269531 -22.957031 L 56.566406 -23.859375 L 56.566406 -25.007812 L 83.09375 -25.007812 C 87.007812 -25.007812 90.171875 -25.304688 92.582031 -25.894531 C 94.988281 -26.480469 96.894531 -27.164062 98.304688 -27.949219 C 99.671875 -28.707031 100.695312 -29.527344 101.378906 -30.40625 C 102.109375 -31.347656 102.683594 -32.226562 103.09375 -33.050781 L 103.574219 -34.011719 L 108.789062 -31.816406 L 93.269531 5.429688 L 92.109375 3.40625 C 91.78125 2.828125 91.164062 2.3125 90.257812 1.859375 C 89.304688 1.386719 87.308594 1.148438 84.261719 1.148438 L 3.25 1.148438 L 6.175781 -0.933594 C 12.710938 -5.585938 19.523438 -10.960938 26.617188 -17.054688 C 33.6875 -23.132812 40.125 -29.625 45.925781 -36.527344 C 51.710938 -43.414062 56.472656 -50.492188 60.21875 -57.757812 C 63.914062 -64.933594 65.761719 -71.933594 65.761719 -78.757812 C 65.761719 -81.28125 65.34375 -83.617188 64.507812 -85.765625 C 63.671875 -87.90625 62.46875 -89.816406 60.902344 -91.488281 C 59.335938 -93.15625 57.511719 -94.460938 55.425781 -95.398438 C 53.351562 -96.332031 51.0625 -96.796875 48.554688 -96.796875 C 45.125 -96.796875 41.855469 -96.261719 38.75 -95.191406 C 35.675781 -94.132812 32.96875 -92.542969 30.640625 -90.421875 C 28.308594 -88.304688 26.453125 -85.707031 25.074219 -82.625 C 23.695312 -79.550781 23.003906 -75.921875 23.003906 -71.75 L 23.003906 -70.84375 L 17.511719 -69.535156 L 10.027344 -100.011719 Z M 11.917969 -98.453125 L 11.347656 -99.445312 L 12.460938 -99.722656 L 19.46875 -71.1875 L 18.355469 -70.914062 L 18.089844 -72.03125 L 21.59375 -72.863281 L 21.859375 -71.75 L 20.710938 -71.75 C 20.710938 -76.25 21.46875 -80.1875 22.980469 -83.5625 C 24.492188 -86.9375 26.53125 -89.789062 29.097656 -92.121094 C 31.660156 -94.449219 34.628906 -96.199219 38.003906 -97.359375 C 41.351562 -98.515625 44.867188 -99.09375 48.554688 -99.09375 C 51.390625 -99.09375 53.992188 -98.558594 56.367188 -97.488281 C 58.730469 -96.425781 60.800781 -94.949219 62.574219 -93.058594 C 64.34375 -91.167969 65.699219 -89.015625 66.644531 -86.597656 C 67.585938 -84.183594 68.058594 -81.570312 68.058594 -78.757812 C 68.058594 -71.5625 66.125 -64.214844 62.257812 -56.707031 C 58.433594 -49.289062 53.578125 -42.070312 47.683594 -35.054688 C 41.800781 -28.054688 35.277344 -21.472656 28.113281 -15.316406 C 20.964844 -9.175781 14.097656 -3.757812 7.507812 0.933594 L 6.839844 0 L 6.839844 -1.148438 L 84.261719 -1.148438 C 87.667969 -1.148438 90.007812 -0.828125 91.285156 -0.191406 C 92.601562 0.46875 93.542969 1.289062 94.101562 2.265625 L 93.105469 2.835938 L 92.046875 2.394531 L 106.230469 -31.644531 L 107.289062 -31.203125 L 106.84375 -30.144531 L 103.675781 -31.480469 L 104.117188 -32.539062 L 105.144531 -32.023438 C 104.667969 -31.066406 104.015625 -30.058594 103.1875 -28.996094 C 102.316406 -27.871094 101.058594 -26.855469 99.421875 -25.945312 C 97.828125 -25.058594 95.730469 -24.300781 93.128906 -23.664062 C 90.535156 -23.03125 87.191406 -22.714844 83.09375 -22.714844 L 53.230469 -22.714844 L 68.046875 -34.28125 C 72.359375 -37.597656 76.503906 -41.082031 80.484375 -44.730469 C 84.441406 -48.355469 87.898438 -52.089844 90.863281 -55.929688 C 93.808594 -59.75 96.179688 -63.726562 97.976562 -67.867188 C 99.75 -71.949219 100.636719 -76.132812 100.636719 -80.425781 C 100.636719 -85.648438 99.390625 -90.167969 96.902344 -93.980469 C 94.378906 -97.847656 91.097656 -101.074219 87.066406 -103.652344 C 83 -106.257812 78.496094 -108.183594 73.554688 -109.429688 C 68.585938 -110.6875 63.753906 -111.316406 59.066406 -111.316406 C 50.054688 -111.316406 41.761719 -110.21875 34.191406 -108.023438 C 26.605469 -105.824219 19.179688 -102.632812 11.917969 -98.453125 Z M 11.917969 -98.453125 "/></g></g></g><g fill="#ff751f" fill-opacity="1"><g transform="translate(341.949872, 115.108576)"><g><path d="M 58.566406 -58.421875 C 57.035156 -58.421875 55.277344 -58.054688 53.289062 -57.324219 C 51.339844 -56.605469 49.480469 -55.335938 47.710938 -53.511719 C 45.917969 -51.667969 44.382812 -49.230469 43.105469 -46.191406 C 41.832031 -43.164062 41.191406 -39.390625 41.191406 -34.875 C 41.191406 -31.949219 41.492188 -29.050781 42.085938 -26.179688 C 42.671875 -23.351562 43.628906 -20.796875 44.957031 -18.515625 C 46.257812 -16.28125 47.996094 -14.464844 50.175781 -13.0625 C 52.324219 -11.683594 55.066406 -10.992188 58.398438 -10.992188 C 61.480469 -10.992188 64.035156 -11.75 66.054688 -13.265625 C 68.136719 -14.828125 69.777344 -16.78125 70.976562 -19.125 C 72.207031 -21.53125 73.089844 -24.152344 73.625 -26.992188 C 74.167969 -29.871094 74.4375 -32.609375 74.4375 -35.207031 C 74.4375 -37.691406 74.167969 -40.316406 73.625 -43.078125 C 73.089844 -45.804688 72.210938 -48.34375 70.980469 -50.695312 C 69.789062 -52.980469 68.179688 -54.847656 66.15625 -56.300781 C 64.1875 -57.714844 61.65625 -58.421875 58.566406 -58.421875 Z M 58.566406 -60.714844 C 62.148438 -60.714844 65.125 -59.863281 67.496094 -58.164062 C 69.8125 -56.5 71.652344 -54.363281 73.015625 -51.757812 C 74.347656 -49.210938 75.300781 -46.464844 75.878906 -43.519531 C 76.449219 -40.609375 76.734375 -37.839844 76.734375 -35.207031 C 76.734375 -32.464844 76.449219 -29.585938 75.878906 -26.566406 C 75.304688 -23.511719 74.351562 -20.683594 73.019531 -18.082031 C 71.660156 -15.421875 69.796875 -13.203125 67.429688 -11.429688 C 65.003906 -9.609375 61.992188 -8.699219 58.398438 -8.699219 C 54.617188 -8.699219 51.460938 -9.507812 48.9375 -11.132812 C 46.445312 -12.734375 44.457031 -14.808594 42.976562 -17.359375 C 41.523438 -19.859375 40.476562 -22.644531 39.839844 -25.714844 C 39.210938 -28.738281 38.898438 -31.792969 38.898438 -34.875 C 38.898438 -39.699219 39.597656 -43.769531 40.992188 -47.082031 C 42.382812 -50.386719 44.074219 -53.0625 46.0625 -55.113281 C 48.078125 -57.183594 50.21875 -58.636719 52.496094 -59.476562 C 54.738281 -60.300781 56.761719 -60.714844 58.566406 -60.714844 Z M 5.527344 -52.058594 C 5.527344 -61.328125 7.027344 -69.730469 10.03125 -77.261719 C 13.039062 -84.808594 17.296875 -91.28125 22.808594 -96.679688 C 28.316406 -102.074219 34.898438 -106.246094 42.554688 -109.195312 C 50.195312 -112.136719 58.648438 -113.609375 67.910156 -113.609375 C 72.96875 -113.609375 78.085938 -113.242188 83.253906 -112.511719 C 88.40625 -111.785156 93.886719 -110.75 99.703125 -109.410156 L 100.804688 -109.15625 L 94.015625 -77.347656 L 88.636719 -77.882812 L 88.621094 -78.90625 C 88.515625 -85.90625 86.671875 -90.964844 83.09375 -94.078125 C 79.472656 -97.226562 74.910156 -98.800781 69.414062 -98.800781 C 64.929688 -98.800781 60.769531 -97.789062 56.933594 -95.761719 C 53.054688 -93.714844 49.6875 -91.050781 46.835938 -87.765625 C 43.972656 -84.46875 41.703125 -80.738281 40.023438 -76.578125 C 38.355469 -72.429688 37.523438 -68.261719 37.523438 -64.074219 L 37.523438 -62.488281 C 37.523438 -61.933594 37.628906 -60.964844 37.84375 -59.574219 L 36.707031 -59.402344 L 35.898438 -60.210938 C 40.21875 -64.53125 45.136719 -68 50.648438 -70.617188 C 56.199219 -73.25 62.675781 -74.566406 70.082031 -74.566406 C 75.554688 -74.566406 80.578125 -73.734375 85.15625 -72.078125 C 89.746094 -70.410156 93.742188 -68.027344 97.132812 -64.917969 C 100.539062 -61.804688 103.191406 -58 105.09375 -53.507812 C 106.988281 -49.027344 107.9375 -43.925781 107.9375 -38.210938 C 107.9375 -31.121094 106.527344 -24.9375 103.714844 -19.652344 C 100.910156 -14.382812 97.1875 -10.003906 92.546875 -6.507812 C 87.925781 -3.03125 82.660156 -0.4375 76.738281 1.269531 C 70.851562 2.96875 64.792969 3.816406 58.566406 3.816406 C 50.289062 3.816406 42.851562 2.394531 36.253906 -0.449219 C 29.652344 -3.292969 24.070312 -7.226562 19.507812 -12.242188 C 14.953125 -17.253906 11.484375 -23.167969 9.09375 -29.988281 C 6.714844 -36.785156 5.527344 -44.144531 5.527344 -52.058594 Z M 7.820312 -52.058594 C 7.820312 -44.402344 8.96875 -37.296875 11.261719 -30.746094 C 13.546875 -24.21875 16.859375 -18.566406 21.207031 -13.785156 C 25.542969 -9.015625 30.863281 -5.269531 37.164062 -2.554688 C 43.46875 0.164062 50.605469 1.523438 58.566406 1.523438 C 64.578125 1.523438 70.421875 0.703125 76.101562 -0.933594 C 81.75 -2.566406 86.773438 -5.035156 91.164062 -8.339844 C 95.535156 -11.632812 99.042969 -15.761719 101.6875 -20.730469 C 104.324219 -25.675781 105.640625 -31.503906 105.640625 -38.210938 C 105.640625 -43.617188 104.753906 -48.417969 102.980469 -52.613281 C 101.207031 -56.796875 98.746094 -60.335938 95.585938 -63.226562 C 92.417969 -66.128906 88.679688 -68.359375 84.371094 -69.917969 C 80.050781 -71.488281 75.285156 -72.269531 70.082031 -72.269531 C 63.023438 -72.269531 56.871094 -71.027344 51.632812 -68.542969 C 46.359375 -66.042969 41.652344 -62.722656 37.519531 -58.589844 L 35.917969 -56.988281 L 35.574219 -59.226562 C 35.34375 -60.730469 35.226562 -61.816406 35.226562 -62.488281 L 35.226562 -64.074219 C 35.226562 -68.558594 36.117188 -73.011719 37.898438 -77.433594 C 39.667969 -81.835938 42.070312 -85.78125 45.101562 -89.269531 C 48.144531 -92.769531 51.730469 -95.613281 55.863281 -97.792969 C 60.035156 -99.992188 64.550781 -101.09375 69.414062 -101.09375 C 75.484375 -101.09375 80.546875 -99.332031 84.597656 -95.808594 C 88.695312 -92.246094 90.800781 -86.625 90.917969 -78.941406 L 89.769531 -78.921875 L 89.882812 -80.066406 L 93.21875 -79.730469 L 93.105469 -78.589844 L 91.984375 -78.828125 L 98.324219 -108.53125 L 99.445312 -108.289062 L 99.1875 -107.171875 C 93.4375 -108.5 88.019531 -109.523438 82.933594 -110.242188 C 77.871094 -110.957031 72.863281 -111.316406 67.910156 -111.316406 C 58.933594 -111.316406 50.753906 -109.894531 43.378906 -107.054688 C 36.015625 -104.21875 29.695312 -100.214844 24.414062 -95.039062 C 19.132812 -89.871094 15.050781 -83.660156 12.160156 -76.414062 C 9.269531 -69.152344 7.820312 -61.035156 7.820312 -52.058594 Z M 7.820312 -52.058594 "/></g></g></g></g></g><g clip-path="url(#39af6243c6)"><path stroke-linecap="butt" transform="matrix(0.749721, 0, 0, 0.749721, 47.408006, 282.377623)" fill="none" stroke-linejoin="miter" d="M -0.00234164 0.00171129 L 527.011193 0.00171129 L 527.011193 14.626937 L -0.00234164 14.626937 Z M -0.00234164 0.00171129 " stroke="#ff751f" stroke-width="8" stroke-opacity="1" stroke-miterlimit="4"/></g></svg>